<svg xmlns="http://www.w3.org/2000/svg" viewBox="0 0 1477.46 959.28"><defs><style>.cls-1{fill:#d5d6da;}.cls-2{fill:#eaeaea;}.cls-3{fill:#fff;}.cls-4{opacity:0.5;}.cls-5{fill:#68a1bf;}.cls-6{fill:#00a3fe;}.cls-7{fill:#ff7955;}.cls-8{fill:#657285;}.cls-9{fill:#131f2d;}.cls-10{fill:#364154;}.cls-11{fill:#5c305d;}.cls-12{fill:#080435;}.cls-13{fill:#020202;}.cls-14{fill:#b05638;}.cls-15{fill:#016eb9;}.cls-16{fill:#a0462d;}.cls-17{fill:#b8c1c9;}.cls-18{fill:#e9633e;}.cls-19{opacity:0.3;}.cls-20{fill:#ec865c;}.cls-21{fill:#daebe8;}.cls-22{fill:#366f90;}.cls-23{opacity:0.4;}</style></defs><g id="Layer_2" data-name="Layer 2"><g id="_Layer_" data-name="&lt;Layer&gt;"><path class="cls-1" d="M638.11,833.2S468.37,382,356.39,436.22s176,275.19,221.51,408.21Z"/><path class="cls-2" d="M580.9,772.22S283.06,347.59,156.27,443.51s270.61,234.42,352.9,361.15Z"/><path class="cls-3" d="M540.93,790.74c-55.36-88.63-143.34-163.69-207.39-211-69.45-51.35-126.48-82.08-127-82.38l1.76-3.82c.57.3,57.86,31.17,127.53,82.68,64.34,47.57,152.73,123,208.43,212.18Z"/><path class="cls-1" d="M85.17,720.35c54.07,19.26,35.92,108.41,100.66,98.94,54.76-8,59.77-12.83,76.6,5.84a94.47,94.47,0,0,1,14.43,21.61c4.65,9.44,14,23.65,29.93,28.57C403.92,905.4,554.9,763.38,460.26,664.64c-6.84-7.13-17.45-10.79-29.27-14.2-64.1-18.45-87.61,11.43-130.75-77.19S175.6,595.2,132.3,586s-80.43-27.75-119.44,18.2S31.09,701.12,85.17,720.35Z"/><g class="cls-4"><path class="cls-3" d="M417.34,775.67l2.41-3.08C418.48,771.44,290,657.68,3.6,617.45l-.48,4C288.39,661.53,416.08,774.54,417.34,775.67Z"/><path class="cls-5" d="M250.57,635.79c41.5-32.33,51.06-60.69,51.44-61.88l-3.53-1.33c-.09.28-9.66,28.44-50.11,59.94Z"/><path class="cls-5" d="M239.72,678.3c12.64-19,14.52-48.16,5.43-84.45a282.84,282.84,0,0,0-17.56-49.31l-3.32,1.88c.42.85,41.47,85.93,12.41,129.53Z"/></g><path class="cls-2" d="M301.71,409c-6.37-9.93-12.11-10-16.84-6.51s-6.68,9.33-.3,19.27c11.61,18.1,25.8,20.48,25.8,20.48S313.5,427.35,301.71,409Z"/><path class="cls-1" d="M935.66,612.43s-5.47-210.83,47.72-210.27S958,544.3,961.37,605.62Z"/><path class="cls-2" d="M936.42,629.08s67.61-284,151-264.28S996.11,545.9,979.29,629.16Z"/><path class="cls-3" d="M960.4,629.35c10.65-57.73,40.56-116,63.78-154.75,25.17-42,48.11-70.67,48.34-71l-1.66-1.54c-.23.29-23.26,29.09-48.51,71.22C999,512.23,969,570.8,958.26,628.89Z"/><path class="cls-2" d="M1085.93,684.15c33.17-3.69,7.46,6.75,47.29,4.33,8.45,17.28,55.52-1,70.23-26.81,18.73-32.94,18.72-25.37,75.51-19.73,40.73,4,42.47-34.46,57.36-63.54.27-.54.55-1.06.83-1.59,5.78-10.79,13.55-20.13,26.07-25.25a161.36,161.36,0,0,0,38.25-22.24c1-.75,1.91-1.52,2.84-2.31,22.83-19,37.3-43.61,26.67-66.77-.25-.55-.51-1.1-.8-1.64a50.76,50.76,0,0,0-8-11.28c-35.64-38.46-67.35-20.77-104.78-11-20.7,5.41-52.85-20.61-83.3-31.61l-1.31-.47c-24.15-8.39-47.1-6.87-62.25,27.84h0c-.31.71-.61,1.4-.92,2.09-33.94,76.5-55.6,52-110.35,70.56-10.18,3.46-19.3,7.09-25,13.59C981,578.93,1025.6,652.06,1085.93,684.15Z"/><path class="cls-3" d="M1075.57,613.4l-2.21-2.59c1.06-1,109.11-105.5,357.34-152.3l.56,3.46C1184,508.6,1076.63,612.36,1075.57,613.4Z"/><path class="cls-3" d="M1216,484.61c-37.32-26.49-46.65-50.82-47-51.84l3-1.31c.09.24,9.43,24.4,45.81,50.21Z"/><path class="cls-3" d="M1227,521.23c-11.69-16-14.36-41.4-7.72-73.41a247,247,0,0,1,13.57-43.71l3,1.5c-.33.76-33.11,76.63-6.23,113.45Z"/><path class="cls-1" d="M1222,325c6.93-11.3,5.65-17,1.54-19.95s-9.51-1.93-16.44,9.37c-12.62,20.58-11.27,35.82-11.27,35.82S1209.16,345.91,1222,325Z"/><path class="cls-1" d="M1234.83,365.43c12.34-2.64,15.23-7.64,14.26-12.85s-5.41-8.64-17.74-6c-22.47,4.81-31.58,16.56-31.58,16.56S1212,370.32,1234.83,365.43Z"/><ellipse class="cls-2" cx="750.5" cy="865.04" rx="726.96" ry="94.24"/><path class="cls-6" d="M1086.25,148.5S599.57,335.81,448.67,462.36C267.32,614.45,754.7,601.61,763,651.21S263.24,791.43,263.24,791.43c23.46,73.61,366.13,108.9,625.92,56,100.19-20.41,233.06-81.79,223.51-191.17-15.61-178.67-344.86-122.51-334.45-186.82s333-280.8,333-280.8Z"/><path class="cls-6" d="M1031.29,126.48C1069,99.2,1207.46,69.34,1209.55,85.62s-69.36,169.47-88.18,164.72-29.66-78.54-29.66-78.54S1010.91,141.21,1031.29,126.48Z"/><path class="cls-7" d="M317.69,675.32c-2.26,2.76-5.6,9.31-7.81,12.12-1,1.22-3.93,5.56-2.95,6.76.85,1,4.7-1.18,6.42-2.48-1,10.53,1.86,26.39,5.43,4.47h0c-.17,2.26-1.13,14.79,1.71,13.86,2.51-.83,3.54-9.77,3.86-13.47h.09c0,3.8.12,13,2.28,11.33,2.7-2,4-11.81,4-11.81s-1.46,12.52,1.92,10.59c1.91-1.1,2.06-8.36,2.09-12.89h0c0-.95,0-1.78,0-2.4a6.7,6.7,0,0,0-.12-1.4,58.67,58.67,0,0,0-1.79-12.37s-.72-5.94-6.78-6.5C322.29,670.76,318.67,674.12,317.69,675.32Z"/><path class="cls-8" d="M309.59,678c-21.27-15-.72-66.82-9.57-99-2-7.45-2.93-10.26-4.7-14.41-1.42-3.34,2.42-9.84,7.69-12.52,4.95-2.52,16.83-.86,17.77.83,14.33,25.73,21.2,67.67,14.06,121.61C334.84,674.57,318.73,684.5,309.59,678Z"/><path class="cls-9" d="M275.67,868.06s.18,7.76,5.06,10,19,4.16,13.73,9.15c-3,2.87-17.31,1-21.34,1s-7.82,1.89-10.82-1c-3.3-3.19,0-19.1,0-19.1a15.24,15.24,0,0,0,6.61,1.86C273.42,869.79,275.67,868.06,275.67,868.06Z"/><path class="cls-10" d="M317.76,633.79s1,35-9.41,102.24c-7.49,48.52-16.34,97.4-20.69,120.84-1.55,8.39-8.1,14.52-15.86,14.85l-4.17.18c-8.39.36-15.21-7.4-14.59-16.62l10.53-158.57,2.6-52.19Z"/><path class="cls-9" d="M214.8,866.94s-2.8,7.15.81,11.31,15.73,12.23,9,14.43c-3.86,1.27-16.17-6.75-19.84-8.54s-7.85-1.74-9.47-5.71c-1.78-4.38,7.31-17.42,7.31-17.42a16.45,16.45,0,0,0,5.31,4.63C212.09,867.53,214.8,866.94,214.8,866.94Z"/><path class="cls-10" d="M274.64,637.05s-1.69,35-17.16,101.06c-11.16,47.69-23.7,95.64-29.81,118.61-2.19,8.22-9.18,13.75-16.94,13.4l-4.17-.19c-8.39-.37-14.59-8.71-13.28-17.85L215.84,695l6.56-51.78Z"/><path class="cls-9" d="M214.86,672.19c.1,4.22,23.84,5.9,53.2,4.92s52.82-5.36,52.72-9.59-23.72-6.71-53.09-5.72S214.76,668,214.86,672.19Z"/><path class="cls-8" d="M222.05,552.53s5.19-22.15,43.49-22.38c55.24-.32,50.13,54.32,55.24,137.37,0,0-54.38-7.24-105.92,4.67C214.86,672.19,210.05,586.38,222.05,552.53Z"/><path class="cls-8" d="M207.91,549.35l25,14.91s54.78,5.35,69.32,2.77S320.78,553,320.78,553A78.53,78.53,0,0,0,279,531.1a74.3,74.3,0,0,0-7.7-1,70.32,70.32,0,0,0-13.31.29C224.59,534.49,207.91,549.35,207.91,549.35Z"/><path class="cls-10" d="M316.16,670.94s-31.82-10.08-97.7,3.76L218,684.9l96.58,3.68Z"/><path class="cls-8" d="M205.4,672.53c2.3-27.29,18.77-100.14,20.95-104,1.76-3.15-1.39-10.06-6.36-13.36-4.66-3.1-10.69-7-12.08-5.77-19.7,17.88-34.51,85.49-29.16,121.68Z"/><path class="cls-11" d="M271.74,483.54a23.28,23.28,0,0,1,3.9,8.39c1.27,5.15-8.48-3.94-8.48-3.94Z"/><path class="cls-7" d="M253.11,531.12c4,5.25,11.08,4.51,16.65,1.87,4.47-2.13,3.83-2.09,3.22-2.87-1.52-1.91-2.77-2.38-2.86-4.58l-.11-2.89v-.36l-.14-3.77-.25-6.5L269,494.91,264,512.11l-.84,2.92-2.89,10.05C259.34,528.32,253.14,531.11,253.11,531.12Z"/><path class="cls-9" d="M262.4,517.73a11.73,11.73,0,0,0,7.61,4.92v-.36l-.14-3.77Z"/><ellipse class="cls-7" cx="265.03" cy="501.56" rx="14.45" ry="18.1" transform="translate(-187.88 159.98) rotate(-25.12)"/><path class="cls-12" d="M267.76,499.37a.31.31,0,0,0,.1-.26.29.29,0,0,0-.31-.28,3.12,3.12,0,0,0-3,2.55.33.33,0,0,0,.19.39c.15.05.28,0,.36-.2a4.91,4.91,0,0,1,2.48-2.12A.3.3,0,0,0,267.76,499.37Z"/><path class="cls-12" d="M274.71,495.61a.22.22,0,0,0,.1-.2.38.38,0,0,0-.23-.36,2,2,0,0,0-2.68,1.35.38.38,0,0,0,.13.41c.12.1.23.05.31-.06a2.92,2.92,0,0,1,2.22-1.12A.19.19,0,0,0,274.71,495.61Z"/><path class="cls-6" d="M265.64,533.83s6.72-2.24,8.51-.5.48,9.7-2.62,10.4S262.57,535.75,265.64,533.83Z"/><path class="cls-10" d="M269.59,532s-8.79-3.34-10.5-6.68-10.81,4.38-10.65,6.68,16.54,15.1,17.61,13.49S271.73,534.14,269.59,532Z"/><path class="cls-10" d="M269.59,532s1.31-3.51.68-5.41c0,0-.42-1.68.92-1.56s8.62,5.59,9.26,7.26.75,9.51-1.61,10.09-8-7.85-8.7-8.68A2.46,2.46,0,0,1,269.59,532Z"/><path class="cls-6" d="M273.41,540.66s23.15,64.6,21.61,91.68c0,0-1.63,15.8-12,24.33,0,0-14-9.91-15.93-24.33-1.55-11.85,5.32-80.5,1.36-90Z"/><path class="cls-9" d="M271.48,543.9h0c2.05,0,3.16-4.33,3.21-4.52l-.33-.08s-1.09,4.24-2.89,4.27h0c-1.83,0-3.47-1.83-3.49-1.85l-.25.22C267.82,542,269.5,543.9,271.48,543.9Z"/><path class="cls-9" d="M254.93,494.34a13.17,13.17,0,0,0,12.33.26s.65-.75-.87-.91-4.16-1.44-4-2.35,8.46,3.69,13.44.53c0,0,7-4.13.74-6.48-3.91-1.46-6.57-14.12-24.17-5.92-2.58,1.2-7.82,4.47-7.89,9.72,0,0-6.9,3.44-4.17,13,4.12,14.45,17.71,13.22,17.71,13.22s-8.07-9.79-4.29-10c4.85-.26,5.83-3.83,3-5.35S251.13,494,254.93,494.34Z"/><path class="cls-7" d="M253.84,511.27a3,3,0,0,0,3.36-2.62,3.09,3.09,0,0,0-2.79-3.29,3,3,0,0,0-3.36,2.62A3.09,3.09,0,0,0,253.84,511.27Z"/><path class="cls-9" d="M239.21,492.7a.32.32,0,0,0,.32-.24,6.07,6.07,0,0,1,4.17-3.79.33.33,0,0,0-.14-.65,6.61,6.61,0,0,0-4.66,4.25.32.32,0,0,0,.22.41Z"/><path class="cls-9" d="M243.8,486.46a.32.32,0,0,0,.18-.06.34.34,0,0,0,.1-.46c0-.06-.93-1.55.94-3.6a.34.34,0,0,0,0-.47.32.32,0,0,0-.47,0c-2.23,2.44-1.06,4.33-1,4.41A.33.33,0,0,0,243.8,486.46Z"/><ellipse class="cls-9" cx="192.07" cy="671.78" rx="7.16" ry="13.35" transform="translate(-490.52 820.96) rotate(-86.37)"/><path class="cls-9" d="M321.11,667.55c.05-.59,4.49-59.36-11.34-95.77l-.61.27c15.76,36.25,11.34,94.86,11.29,95.45Z"/><path class="cls-9" d="M214.22,614.82a104.08,104.08,0,0,1,12.9-31.5l-.55-.37a104.53,104.53,0,0,0-13,31.72Z"/><path class="cls-12" d="M275.67,499a1.11,1.11,0,0,1-.39,1.42c-.42.16-.93-.22-1.13-.84s0-1.26.39-1.42S275.47,498.41,275.67,499Z"/><path class="cls-12" d="M269.09,502.77c.2.62,0,1.26-.4,1.41s-.92-.21-1.13-.84,0-1.26.4-1.41S268.88,502.14,269.09,502.77Z"/><path class="cls-13" d="M262.93,716c0-.14,2.78-13.63,5.38-24.31,2.54-10.4,12.57-13.18,12.67-13.2l-.26-1c-.11,0-10.71,3-13.39,13.94-2.62,10.69-5.37,24.21-5.4,24.35Z"/><path class="cls-9" d="M200.23,719.7l4.15-.08L204.05,702a9.3,9.3,0,0,0-7.43-8.94l-13-2.33a8.78,8.78,0,0,0-9.4,4.88l0,.07L165.84,714l3.77,1.72,8.3-18.22a4.67,4.67,0,0,1,5-2.63l13,2.33a5.12,5.12,0,0,1,4,5Z"/><path class="cls-14" d="M210.49,774.9l-61.23-4.68a8.25,8.25,0,0,1-7.3-8.93l2.79-46.71c.29-4.9,4.42-8.49,9-7.8l73.39,11.1c5,.77,8.09,6.37,6.22,11.44l-14.94,40.29A7.87,7.87,0,0,1,210.49,774.9Z"/><polygon class="cls-9" points="187.06 744.84 187.22 744.81 231.01 736.26 230.82 735.32 187.19 743.84 144.4 723.4 143.99 724.27 187.06 744.84"/><path class="cls-9" d="M187.2,748.64h0a2.73,2.73,0,0,1-2.1-3.15l.41-2.6a2.58,2.58,0,0,1,2.94-2.25h0a2.74,2.74,0,0,1,2.11,3.15l-.41,2.61A2.59,2.59,0,0,1,187.2,748.64Z"/><path class="cls-7" d="M207.66,692.07a87.56,87.56,0,0,1-3.1-8.48A57.6,57.6,0,0,0,202,677c-.42-.82-3.16-4.68-9.73-4.63s-7.37,2.88-7.37,2.88a61.52,61.52,0,0,0-4.87,12.69,6.6,6.6,0,0,0-.46,1.46c-.78,3.86-2.55,9.19-.36,11.23,2.4,2.24,3.88-1.61,4.49-3.72-.41,1.93-.9,5.65.87,7.75s4-3.83,4.9-6.91h0c-.66,2.76-1.57,8.11.77,9.56,2.77,1.72,4.9-6.5,5.47-8.38H196c1.61,11.71,5.95,5.79,6.93-3.22,1.58,1.88,5.18,5.24,6.34,4.37C210.61,699.08,208.41,693.63,207.66,692.07Z"/><path class="cls-3" d="M274,508.85c.22.82.8,1.36,1.29,1.21s.71-.94.49-1.77-.8-1.36-1.29-1.2S273.76,508,274,508.85Z"/><path class="cls-7" d="M824.45,653.58c1.91,3.29,4.33,10.71,6.18,14,.8,1.45,3.19,6.5,2,7.57-1.05.92-4.7-2.1-6.27-3.77-.65,11.12-6.15,27.06-6.35,3.64h0c-.17,2.37-1.18,15.56-4,14.06-2.47-1.32-2.11-10.79-1.85-14.7l-.1,0c-.58,4-2.2,13.43-4.17,11.34-2.48-2.62-2.32-13-2.32-13s-.48,13.27-3.68,10.64c-1.8-1.49-.8-9.06-.12-13.77h0c.15-1,.28-1.85.37-2.5a6.82,6.82,0,0,1,.34-1.43,60.59,60.59,0,0,1,3.83-12.5s1.7-6,8.08-5.51C820.41,648,823.62,652.16,824.45,653.58Z"/><path class="cls-14" d="M829.27,655.18c23.06-16.32-1.71-66.82,7.87-101.67,2.22-8.08,3.18-11.13,5.1-15.62,1.54-3.62-2.62-10.66-8.34-13.57-5.36-2.73-18.24-.93-19.25.9-15.53,27.89-20.55,73.69-12.81,132.15C801.84,657.37,819.37,662.18,829.27,655.18Z"/><path class="cls-9" d="M863.53,866.72s-.19,8.41-5.48,10.78-20.61,4.52-14.88,9.93c3.28,3.1,18.76,1.1,23.13,1.1s8.48,2.05,11.72-1.1c3.58-3.47,0-20.71,0-20.71s-3.77,2.11-7.16,2C866,868.6,863.53,866.72,863.53,866.72Z"/><path class="cls-10" d="M817.91,612.83s-1,38,10.2,110.8c8.13,52.58,17.72,105.57,22.43,131,1.68,9.08,8.78,15.73,17.19,16.09l4.52.2c9.1.39,16.48-8,15.81-18L876.65,681l-2.81-56.56Z"/><path class="cls-9" d="M913.61,866.72s-.19,8.41-5.48,10.78-20.61,4.52-14.89,9.93c3.29,3.1,18.77,1.1,23.14,1.1s8.47,2.05,11.72-1.1c3.58-3.47,0-20.71,0-20.71s-3.77,2.11-7.16,2C916.05,868.6,913.61,866.72,913.61,866.72Z"/><path class="cls-10" d="M868,612.83s-1,38,10.2,110.8c8.13,52.58,17.72,105.57,22.42,131,1.69,9.08,8.79,15.73,17.2,16.09l4.52.2c9.09.39,16.48-8,15.81-18L926.73,681l-2.82-56.56Z"/><path class="cls-9" d="M929.44,654.44c-.11,4.58-25.83,6.4-57.66,5.33s-57.24-5.81-57.13-10.39,25.71-7.27,57.53-6.2S929.55,649.86,929.44,654.44Z"/><path class="cls-14" d="M921.65,524.75s-5.62-24-47.14-24.25c-59.87-.35-54.33,58.87-59.86,148.88,0,0,59-9,114.82,3.93C929.47,653.31,934.65,561.44,921.65,524.75Z"/><path class="cls-14" d="M937,521.31l-27.12,16.15s-59.37,5.81-75.13,3-20.08-15.25-20.08-15.25,16.78-18.7,45.31-23.7a80.41,80.41,0,0,1,8.35-1,77.05,77.05,0,0,1,14.42.31C918.89,505.2,937,521.31,937,521.31Z"/><path class="cls-10" d="M819.66,653.09s34.47-10.92,105.88,4.07l.55,11.06-104.68,4Z"/><path class="cls-14" d="M942.17,653.31c-2.49-29.59-22.81-107-25.18-111.27-1.91-3.41,1.5-10.9,6.89-14.48,5-3.35,11.58-7.63,13.1-6.25,21.34,19.37,39.7,90.16,33.91,129.38Z"/><path class="cls-7" d="M888,501.55c-4.3,5.7-12,4.89-18,2-4.85-2.31-4.15-2.26-3.48-3.1,1.64-2.08,3-2.58,3.09-5l.12-3.13V492l.15-4.09.27-7,.71-18.54,5.37,18.63.91,3.17,3.13,10.9C881.23,498.52,888,501.54,888,501.55Z"/><path class="cls-9" d="M877.73,486.9a12,12,0,0,1-8.06,5.47V492l.15-4.09C872.8,487.58,877.73,486.9,877.73,486.9Z"/><path class="cls-6" d="M842.59,611.24s1.73,17.12,13,26.37a50.2,50.2,0,0,0,12.11-13,31.63,31.63,0,0,0,5.14-13.33,105.65,105.65,0,0,0,.22-11.88c-.17-4.36-.44-9.55-.71-15.19-.48-9.9-1.19-21.14-1.67-31.74-.27-5.82-.49-11.47-.6-16.53-.21-10.77.06-19.22,1.3-22.18L866,511.91s-2.32,6.46-5.51,16.3c-1.19,3.79-2.55,8-4,12.58-2.16,7.28-4.49,15.37-6.6,23.52-1.14,4.48-2.27,9-3.19,13.45a178,178,0,0,0-4,25.21A53,53,0,0,0,842.59,611.24Z"/><path class="cls-9" d="M970.89,650.69c.17,4.28-6.16,8.12-14.13,8.57s-14.58-2.65-14.75-6.94,6.16-8.12,14.13-8.57S970.72,646.41,970.89,650.69Z"/><path class="cls-9" d="M814.29,649.41l.72-.06c-.06-.63-4.85-64.16,12.23-103.45l-.66-.28C809.42,585.07,814.23,648.77,814.29,649.41Z"/><path class="cls-9" d="M930.14,592.26l.7-.16a113.58,113.58,0,0,0-14.09-34.38l-.6.4A112.72,112.72,0,0,1,930.14,592.26Z"/><path class="cls-9" d="M864.51,450.49a25.68,25.68,0,0,0-3.13,9.59c-.71,5.73,8.61-5.48,8.61-5.48Z"/><ellipse class="cls-7" cx="874.01" cy="468.87" rx="19.75" ry="15.56" transform="translate(140.18 1136.13) rotate(-70.49)"/><path class="cls-9" d="M889.86,471.09l-6.77-3.44a5.79,5.79,0,0,1-3-3.91c-.65-3-2-4.87-8.61-7.09-8.41-2.8-12.16-10.2-11.53-15.21s5.94-6.75,9.37-2.9,3.46-2.4,7.66-1.48c7.85,1.72,7.23,8.47,13.43,10.59,8.13,2.77,20.39,14.79,8.59,27.45Z"/><path class="cls-12" d="M872.55,466.67a.33.33,0,0,1,0-.29.3.3,0,0,1,.38-.24,3.51,3.51,0,0,1,2.71,3.36.33.33,0,0,1-.27.37c-.17,0-.29-.11-.35-.29a5.57,5.57,0,0,0-2.25-2.79A.3.3,0,0,1,872.55,466.67Z"/><path class="cls-12" d="M872.5,471.22c-.42.66-1.12.92-1.57.59a1.38,1.38,0,0,1,0-1.79c.43-.66,1.13-.93,1.57-.6A1.37,1.37,0,0,1,872.5,471.22Z"/><path class="cls-12" d="M862.82,461.19a.28.28,0,0,1-.08-.23.4.4,0,0,1,.3-.35,2.17,2.17,0,0,1,2.68,1.88.39.39,0,0,1-.19.42c-.14.09-.26,0-.33-.12a3.2,3.2,0,0,0-2.22-1.56A.23.23,0,0,1,862.82,461.19Z"/><path class="cls-12" d="M863.94,465.64c-.25.75-.86,1.21-1.37,1s-.72-1-.48-1.71.86-1.21,1.37-1S864.19,464.88,863.94,465.64Z"/><path class="cls-9" d="M899,475.1s-8.53,9.45-15.68,7.67c0,0,8.36-6.49-1.66-16.16C881.67,466.61,893,468.86,899,475.1Z"/><path class="cls-7" d="M887.28,477.66a3.16,3.16,0,0,1-3.94-2.32,3.41,3.41,0,0,1,2.58-3.95,3.15,3.15,0,0,1,3.94,2.32A3.42,3.42,0,0,1,887.28,477.66Z"/><path class="cls-6" d="M862.39,440.43a2.43,2.43,0,0,0,2.4-1.85.37.37,0,0,0-.71-.17h0a1.75,1.75,0,0,1-2.26,1.24.36.36,0,0,0-.43.28.35.35,0,0,0,.27.42A3.32,3.32,0,0,0,862.39,440.43Z"/><path class="cls-3" d="M870,453.25l.13-.17c-.08-.06-8-6.22-6.77-11.26.36-1.46.89-2.3,1.63-2.58,1.13-.43,2.56.55,3.83,1.42l.58.4.12-.18-.57-.39c-1.32-.91-2.81-1.93-4-1.45-.81.3-1.38,1.2-1.76,2.73-.52,2.15.5,4.82,2.95,7.72A28.45,28.45,0,0,0,870,453.25Z"/><path class="cls-3" d="M893.29,450.7l.05-.21c-9-2-11.48-8.79-11.51-8.85l-.2.07C881.65,441.78,884.14,448.68,893.29,450.7Z"/><path class="cls-7" d="M947.45,653.65c-2.62,2.66-6.71,9.17-9.28,11.88-1.11,1.18-4.62,5.42-3.7,6.78.8,1.18,5-.75,7-1.94-2,10.94-.43,27.86,5.28,5.26h0c-.38,2.34-2.52,15.37.54,14.69,2.71-.6,4.59-9.87,5.26-13.71h.1c-.37,4-1,13.58,1.36,12.1,3-1.85,5.31-12,5.31-12s-2.67,13,1.05,11.3c2.1-.94,2.91-8.54,3.36-13.28h0c.09-1,.17-1.87.24-2.52a7.3,7.3,0,0,0,0-1.48,62.38,62.38,0,0,0-.76-13.14s-.22-6.31-6.51-7.53C952.68,649.35,948.59,652.49,947.45,653.65Z"/><path class="cls-9" d="M880.14,737.53l.45-.09c-.1-.53-10.22-53.49-12.4-61.8a15,15,0,0,0-10.33-10.42l-.11.46a14.47,14.47,0,0,1,10,10.08C869.92,684.05,880,737,880.14,737.53Z"/><path class="cls-15" d="M870.11,535.9c-.21-10.77.06-19.22,1.3-22.18L866,511.91s-2.32,6.46-5.51,16.3C863.73,530.72,867.19,533.45,870.11,535.9Z"/><path class="cls-15" d="M849.94,564.31c7.63,6.35,18.39,15.49,22.44,19.86-.48-9.9-1.19-21.14-1.67-31.74l-14.17-11.64C854.38,548.07,852.05,556.16,849.94,564.31Z"/><path class="cls-15" d="M842.75,603c6.87,5.82,17.79,15.08,25,21.6a31.63,31.63,0,0,0,5.14-13.33,105.65,105.65,0,0,0,.22-11.88l-26.34-21.6A178,178,0,0,0,842.75,603Z"/><path class="cls-6" d="M874.41,504.49s-7.29-2.43-9.23-.55-.51,10.51,2.84,11.28S877.73,506.57,874.41,504.49Z"/><path class="cls-16" d="M870.13,502.45s9.52-3.62,11.37-7.24,11.72,4.75,11.55,7.24S875.12,518.82,874,517.07,867.8,504.83,870.13,502.45Z"/><path class="cls-16" d="M870.13,502.45s-1.42-3.8-.74-5.86c0,0,.45-1.82-1-1.69s-9.34,6.05-10,7.87-.81,10.3,1.74,10.93,8.71-8.5,9.43-9.41A2.63,2.63,0,0,0,870.13,502.45Z"/><path class="cls-9" d="M868.08,515.4c2.14,0,4-2,4-2.12l-.27-.24s-1.8,2-3.78,2H868c-1.95,0-3.12-4.58-3.13-4.62l-.35.09c.05.19,1.25,4.85,3.47,4.89Z"/><path class="cls-3" d="M865.57,478.48c0,1.09-.55,2-1.23,2s-1.24-.88-1.24-2,.55-2,1.24-2S865.57,477.39,865.57,478.48Z"/><path class="cls-8" d="M546,226c15.2-30.1,74-68.33,92-65.2,3.88.68-21.52-52.51-30.08-47.09-29.63,18.74-73.65,60-84.53,90.12Z"/><path class="cls-9" d="M539.91,208.27c-7.26-9.06-13.92-7.81-16.52-4.44s.59,10.83,7.11,16.65,12.93,8.9,15.53,5.52S545.45,215.17,539.91,208.27Z"/><path class="cls-7" d="M538.87,219.66c0,3.74-1.41,11.17-1.43,14.92,0,1.62-.39,7.08-1.88,7.31-1.3.2-2.9-4.27-3.43-6.5-5.7,8.84-17.66,19-6.93-.42h0c-1.25,1.86-8.22,12.21-9.83,9.46-1.43-2.42,3.28-10,5.31-13.14l-.08-.07c-2.31,2.95-8.06,9.9-8.72,7.11-.82-3.5,4.15-12,4.15-12s-6.57,10.7-8,6.8c-.8-2.2,3.55-7.91,6.31-11.43h0c.58-.74,1.09-1.38,1.46-1.87a5.65,5.65,0,0,1,1-1,53.29,53.29,0,0,1,9-8.26,7,7,0,0,1,9.23-.19C538.14,212.87,538.86,218,538.87,219.66Z"/><path class="cls-9" d="M673,433.72s-3.32,8.94,1.26,14,19.79,14.75,11.5,17.66c-4.75,1.67-20.2-7.94-24.8-10.06s-9.77-1.95-11.87-6.84c-2.31-5.38,8.66-21.79,8.66-21.79s3.09,4.05,6.69,5.6C669.65,434.52,673,433.72,673,433.72Z"/><path class="cls-9" d="M540.35,470.63s-.48,9.61,5.35,12.84,23.13,7.16,16.14,12.77c-4,3.22-21.5-.58-26.48-1s-9.85,1.51-13.29-2.4c-3.78-4.3,1.75-23.63,1.75-23.63s4.12,2.78,8,3C537.41,472.54,540.35,470.63,540.35,470.63Z"/><path class="cls-10" d="M650.47,248.89s19.61-11.25-9.13,54.47c-20.74,47.44-64.9,132-86.91,161.11-5.35,7.09-13.25,12.27-22.67,10.07l-5.06-1.18c-10.18-2.38-16.49-12.59-13.52-21.88l74.88-213.41s4.68-6,30.78-3C650.83,238.73,650.47,248.89,650.47,248.89Z"/><path class="cls-10" d="M677.55,253.32s39.24,31.34,49.42,72.2c11.56,46.4-39.07,108.26-51.15,113-7.88,3.11-14.14,0-23.07-16.68-5.34-10,20.64-66.89,12.5-86.47-9.84-23.68-58-43.27-58-43.27l4.66-60.95S647.35,239.47,677.55,253.32Z"/><path class="cls-8" d="M593.29,130s7-25.18,51-23.44c33.91,1.35,52.88,6.18,57,30.38,1.45,8.59,4.94,40.46-13.25,125.26,0,0-59.81,27.95-115.65-2.58,0,0,8.52-45.26,18.61-114.83C591.85,138.91,591.52,134.42,593.29,130Z"/><path class="cls-6" d="M654.24,117.39c-2.12,8.3-17.9,67.8-104.67,45.2a26.09,26.09,0,0,0-16.23,1L519,169.23A3.15,3.15,0,0,0,517.8,174l8.59,11.53a38.55,38.55,0,0,0,21.79,14.61c18,4.34,50.17,8.63,77.34-6.13,32.26-17.54,36.44-59.54,36.83-75.44a2.82,2.82,0,0,0-4.55-2.49h0C657.32,116.47,654.4,116.76,654.24,117.39Z"/><path class="cls-7" d="M645.64,100.44l2.36-12,.68-3.49,4-20.57,2.46,19.81,1.48,11.89.47,3.77c.32,2.55,1.81,3,3.77,5,.8.83,5.85,5.85.86,8.84-6.21,3.73-18.72.27-23.85-5.39C637.94,108.27,644.88,104.32,645.64,100.44Z"/><path class="cls-9" d="M647.36,91.65s4.08,4.21,9.3,4.41L656,91.21Z"/><path class="cls-11" d="M666.88,55.38a28.21,28.21,0,0,1,.93,10.91c-.65,6.18-7.66-8.16-7.66-8.16Z"/><path class="cls-7" d="M668.65,68c-2.44-11.59-11.65-19.22-20.58-17s-14.19,13.33-11.75,24.92,11.65,19.22,20.58,17S671.08,79.56,668.65,68Z"/><path class="cls-9" d="M635.38,69.76l7.91-1.69a5.91,5.91,0,0,0,4.08-3.24c1.4-2.92,3.24-4.53,10.72-5,9.47-.56,15.18-7.23,15.74-12.65s-4.57-8.73-9.08-5.67-3-3.48-7.65-3.71c-8.62-.41-9.61,6.82-16.6,7.28-9.17.61-24.9,9.72-15.65,26.27Z"/><path class="cls-12" d="M653.46,70.84a.32.32,0,0,0,.27-.14.37.37,0,0,0-.06-.5,3.45,3.45,0,0,0-4.45-.32.4.4,0,0,0-.12.5.36.36,0,0,0,.46.13,5.4,5.4,0,0,1,3.7.25A.3.3,0,0,0,653.46,70.84Z"/><path class="cls-12" d="M665.57,68.05c.06,0,.09-.15.07-.3a.91.91,0,0,0-.42-.59c-.11,0-2.7-1.49-3.06,1.73a.9.9,0,0,0,.3.67c.19.17.32.1.39-.06a2.49,2.49,0,0,1,2.53-1.45A.18.18,0,0,0,665.57,68.05Z"/><path class="cls-12" d="M662.82,72.62c0,.86.43,1.58,1,1.6s1.07-.66,1.1-1.52-.42-1.58-1-1.6S662.85,71.76,662.82,72.62Z"/><path class="cls-11" d="M624.85,71.38s6.62,12.27,14.52,12.43c0,0-7.16-9.14,5.66-16.42C645,67.39,632.61,66.54,624.85,71.38Z"/><path class="cls-7" d="M636.49,77.36A3.3,3.3,0,0,0,641.17,76a3.81,3.81,0,0,0-1.74-4.85,3.3,3.3,0,0,0-4.68,1.31A3.82,3.82,0,0,0,636.49,77.36Z"/><path class="cls-9" d="M663.29,40.81a3.08,3.08,0,0,0,.51,0l-.06-.46a2.09,2.09,0,0,1-2.53-1.65l-.46.08A2.55,2.55,0,0,0,663.29,40.81Z"/><path class="cls-3" d="M660.52,56.74a29.32,29.32,0,0,0,5-2.84c3.27-2.34,5-4.84,5-7.23,0-1.72-.41-2.82-1.19-3.37-1.18-.81-3-.17-4.55.4l-.7.24.08.22.7-.24c1.53-.55,3.26-1.17,4.34-.42.71.49,1.06,1.53,1.08,3.17.06,5.61-9.7,9.81-9.8,9.85Z"/><path class="cls-3" d="M637.75,47.52a17.49,17.49,0,0,0,10-2.9,13,13,0,0,0,3.38-3.24l-.2-.13c0,.07-4.26,6.46-14.17,6v.24Z"/><path class="cls-3" d="M664.4,82s-.64,4.27-4.88,4.53a5.34,5.34,0,0,1-5.72-3.4S660,84,664.4,82Z"/><path class="cls-9" d="M649.35,74.58a.33.33,0,0,0,.17,0,7,7,0,0,1,4.67-.51.31.31,0,0,0,.38-.23.3.3,0,0,0-.22-.38,7.52,7.52,0,0,0-5.16.58.31.31,0,0,0-.11.43A.32.32,0,0,0,649.35,74.58Z"/><path class="cls-6" d="M652,110.59s7.83-2.22,9.81-.13.1,11.17-3.49,11.82S648.43,112.64,652,110.59Z"/><path class="cls-9" d="M658.4,122.47c2.33,0,3.78-4.82,3.84-5l-.37-.11s-1.43,4.75-3.47,4.75h0c-2.12-.06-4-2.29-4-2.31l-.3.24c.08.1,2,2.39,4.26,2.45Z"/><path class="cls-9" d="M655.83,244.89a2.38,2.38,0,0,1-3.44.76,2.81,2.81,0,0,1-.7-3.71c.75-1.24,2.13-1.92,3.27-1.1A2.87,2.87,0,0,1,655.83,244.89Z"/><path class="cls-9" d="M661,205.42a2.42,2.42,0,0,1-3.26,1.42,2.75,2.75,0,0,1-1.31-3.51c.54-1.36,1.78-2.3,3-1.72A2.81,2.81,0,0,1,661,205.42Z"/><path class="cls-9" d="M666,165.52a2.42,2.42,0,0,1-3.26,1.41,2.75,2.75,0,0,1-1.31-3.51c.53-1.36,1.77-2.3,3-1.72A2.83,2.83,0,0,1,666,165.52Z"/><path class="cls-8" d="M664.4,106.48c23.06,0,43.4,13.9,49.67,7.7,1.48-1.47-6.34-50.42-6.34-50.42l19,.66s36.81,63.25,17.78,84.08c-23.34,25.55-57.58,10-57.58,10S652.6,106.47,664.4,106.48Z"/><path class="cls-9" d="M673.05,78.48l46.67-9.19a4.69,4.69,0,0,0,3.51-5.48l-.92-5.42a4.41,4.41,0,0,0-5.09-3.79l-46.67,9.19A4.7,4.7,0,0,0,667,69.27L668,74.7A4.4,4.4,0,0,0,673.05,78.48Z"/><path class="cls-10" d="M702.89,77.92l45-8.86a6.16,6.16,0,0,0,4.6-7.18l-2.06-12.12a5.77,5.77,0,0,0-6.66-4.95l-45,8.87a6.14,6.14,0,0,0-4.6,7.17L696.23,73A5.76,5.76,0,0,0,702.89,77.92Z"/><path class="cls-6" d="M740.16,74.08,811.59,60a5.06,5.06,0,0,0,3.77-5.88l-3.58-21.07A4.73,4.73,0,0,0,806.32,29L734.89,43.07A5,5,0,0,0,731.12,49L734.7,70A4.73,4.73,0,0,0,740.16,74.08Z"/><path class="cls-9" d="M816,61.61l3.55-.7a3.86,3.86,0,0,0,2.89-4.5l-4.87-28.65a3.62,3.62,0,0,0-4.18-3.12l-3.55.7a3.86,3.86,0,0,0-2.89,4.51l4.87,28.65A3.62,3.62,0,0,0,816,61.61Z"/><path class="cls-7" d="M716.78,45.33s4.8-2.28,6.7,2.45c2.43,6,.07,16.06-1.51,12.25a37.32,37.32,0,0,1-2.05-7.2s1.9,12-.86,11.58-4.39-10.28-4.39-10.28.87,11.53-1.6,10.18-3.73-8.22-3.73-8.22,1.23,9.31-1.61,7.67-2.41-8.56-2.85-11.53c-.41-2.81,1.14-4,3.68-4.24,0,0,2.41-1.82,4.11-1.52.65.11,1.17-.63,1.62-.76A15.48,15.48,0,0,1,716.78,45.33Z"/><path class="cls-9" d="M638.4,308.94a.42.42,0,0,0,.39-.26c6.24-15,20-16.73,20.11-16.75a.42.42,0,0,0,.37-.46.43.43,0,0,0-.47-.37c-.14,0-14.35,1.83-20.78,17.26a.42.42,0,0,0,.22.55A.45.45,0,0,0,638.4,308.94Z"/><path class="cls-9" d="M702.42,163h0a.44.44,0,0,0,.42-.43c-.13-15.89-1.14-25.61-1.15-25.71a.4.4,0,0,0-.46-.37.41.41,0,0,0-.37.46c0,.09,1,9.78,1.14,25.63A.42.42,0,0,0,702.42,163Z"/><path class="cls-10" d="M656.66,108.64s-9.94-4.3-11.76-8.23-12.61,4.47-12.54,7.12,19.93,18.36,21.24,16.57S659,111.27,656.66,108.64Z"/><path class="cls-10" d="M656.66,108.64s1.67-4,1-6.18c0,0-.41-1.95,1.13-1.75s9.65,6.88,10.31,8.83.43,11-2.3,11.5-8.88-9.43-9.61-10.42A2.8,2.8,0,0,1,656.66,108.64Z"/><path class="cls-7" d="M989.42,494.56c-3.1-4.67,13-20.52,13-20.52,1.61-.81,21.5,28,50.32,23.83,10.27-1.49,26.7-17.29,28.11-19.83.19-.34,20.25,12,20.25,12-2.56,4.6-4.52,22.1-16.68,30.51C1059.28,538,1021.16,533.14,989.42,494.56Z"/><path class="cls-9" d="M1098,823.53s-.39,8.07-5.52,10.2-19.89,3.76-14.53,9.11c3.08,3.07,18,1.58,22.19,1.7s8.08,2.21,11.28-.73c3.51-3.22.5-19.88.5-19.88s-3.68,1.93-6.93,1.74C1100.31,825.4,1098,823.53,1098,823.53Z"/><path class="cls-10" d="M1061,599.85s-2.63,15.08,6.42,85.32c6.54,50.71,14.47,101.84,18.38,126.36,1.39,8.77,8.05,15.35,16.12,15.93l4.33.31c8.72.63,16-7.24,15.62-16.86l-6.83-165.3-1.34-54.38Z"/><path class="cls-9" d="M1146.09,824.92s-.39,8.08-5.52,10.21-19.9,3.76-14.53,9.11c3.08,3.07,18,1.58,22.18,1.7s8.09,2.2,11.28-.73c3.52-3.23.5-19.88.5-19.88a15.9,15.9,0,0,1-6.92,1.74C1148.39,826.8,1146.09,824.92,1146.09,824.92Z"/><path class="cls-10" d="M1108.4,579.91s-1.93,36.42,7.13,106.66c6.53,50.7,14.47,101.84,18.37,126.35,1.4,8.77,8.06,15.35,16.12,15.93l4.34.32c8.72.63,16-7.24,15.61-16.86L1163.15,647l-1.34-54.39Z"/><path class="cls-9" d="M1166.39,621.57c-.21,4.39-27-5.2-57.5-7.11s-50.91-13-50.7-17.4,22.56-2.73,53.09-.82S1166.61,617.17,1166.39,621.57Z"/><path class="cls-15" d="M1178.59,498.23s-1.64-23.72-40.87-31.35c-56.59-11-60.45,46-79.53,130.18,0,0,57.28,1.86,108.14,24C1166.33,621.08,1185.24,535.25,1178.59,498.23Z"/><path class="cls-15" d="M1193.61,497.7l-28.13,10.45s-57.06-5.09-71.54-10.54-16.66-18-16.66-18,18.76-14.7,46.52-14.34a77.58,77.58,0,0,1,8,.52,73.12,73.12,0,0,1,13.59,2.86C1179,479.24,1193.61,497.7,1193.61,497.7Z"/><path class="cls-7" d="M1144,462.7l-1.29-10.86-.38-3.16-2.2-18.59-3.52,17.42L1134.46,458l-.67,3.31c-.45,2.24-1.81,2.48-3.69,4.15-.76.68-5.59,4.75-1.36,7.79,5.28,3.8,16.63,1.69,21.56-2.93C1150.27,470.26,1144.38,466.21,1144,462.7Z"/><path class="cls-10" d="M1061,599.85s25.44-1.36,101.52,22.86l.29,12-100.59.91Z"/><path class="cls-9" d="M1194,498.44c1.64,3.72-2.63,9.66-9.53,13.27s-13.82,3.51-15.46-.21,2.64-9.67,9.54-13.27S1192.41,494.72,1194,498.44Z"/><path class="cls-7" d="M1179.51,632.55c2.18-28.44,3.27-69.47-4-103.5-1.68-7.88-2.43-10.87-4-15.3-1.28-3.56,3.11-10.05,8.75-12.47,5.29-2.27,12.65-.35,13.57,1.44,1.57,3,2.88,8.57,4.88,17.32,7,30.42,8,68.2,3.12,115.76Z"/><path class="cls-9" d="M1131.83,418.65a24.68,24.68,0,0,0-3.1,9.18c-.74,5.49,8.33-5.17,8.33-5.17Z"/><ellipse class="cls-7" cx="1140.77" cy="436.42" rx="18.96" ry="14.95" transform="translate(340.5 1359.12) rotate(-70)"/><path class="cls-9" d="M1156,438.73l-6.47-3.38a5.58,5.58,0,0,1-2.83-3.79c-.59-2.86-1.84-4.7-8.2-6.91-8-2.79-11.57-9.93-10.91-14.74s5.77-6.41,9-2.68,3.35-2.27,7.37-1.33c7.53,1.75,6.86,8.22,12.79,10.32,7.78,2.76,19.43,14.45,8,26.47Z"/><path class="cls-12" d="M1140.3,435.37a.34.34,0,0,1-.06-.28.31.31,0,0,1,.37-.23,3.39,3.39,0,0,1,2.57,3.26.32.32,0,0,1-.26.36c-.17,0-.28-.11-.33-.28a5.35,5.35,0,0,0-2.14-2.71A.26.26,0,0,1,1140.3,435.37Z"/><path class="cls-12" d="M1140.2,439.74c-.41.63-1.09.88-1.51.55a1.31,1.31,0,0,1,0-1.72c.41-.63,1.09-.87,1.51-.55A1.31,1.31,0,0,1,1140.2,439.74Z"/><path class="cls-12" d="M1130.19,430.4a.24.24,0,0,1-.11-.22.38.38,0,0,1,.25-.36,2,2,0,0,1,2.75,1.47.42.42,0,0,1-.13.43c-.13.1-.25,0-.33-.08a3.12,3.12,0,0,0-2.28-1.23A.19.19,0,0,1,1130.19,430.4Z"/><path class="cls-12" d="M1131.7,434.51c-.16.75-.69,1.25-1.2,1.13s-.79-.83-.63-1.58.7-1.26,1.21-1.14S1131.86,433.76,1131.7,434.51Z"/><path class="cls-9" d="M1164.71,442.69s-8.28,9-15.13,7.18c0,0,8.1-6.13-1.43-15.53C1148.15,434.34,1159,436.63,1164.71,442.69Z"/><path class="cls-7" d="M1153.42,445a3,3,0,0,1-3.76-2.27,3.28,3.28,0,0,1,2.52-3.77,3,3,0,0,1,3.76,2.27A3.28,3.28,0,0,1,1153.42,445Z"/><path class="cls-9" d="M1148.15,434.34s-2.16,9.4-4.45,10.44-13.83-2.65-18.36-6.91h0c-2,5.78,0,12.4,5,15.45a15.93,15.93,0,0,0,5.4,2.09h0c3.92.76,8.07.52,10.83-2.57.84-.94,1.83-8.37,1.83-8.37s.86-4.25,3.76-5.5C1152.18,439,1150.48,435.54,1148.15,434.34Z"/><path class="cls-9" d="M1138.68,407.06a2.24,2.24,0,0,0,1.94-1.28l-.38-.17a1.79,1.79,0,0,1-2.52.81l-.17.38A2.94,2.94,0,0,0,1138.68,407.06Z"/><path class="cls-3" d="M1137,421.37l.12-.16a29.25,29.25,0,0,1-3.67-3.64c-1.59-1.92-3.35-4.74-2.71-7.26.36-1.39.88-2.19,1.58-2.46,1.09-.4,2.47.57,3.68,1.42l.55.38.12-.17-.55-.38c-1.26-.88-2.68-1.88-3.87-1.44-.77.28-1.33,1.14-1.71,2.6C1129.3,415.22,1136.71,421.12,1137,421.37Z"/><path class="cls-3" d="M1159.47,419.2l0-.21c-8.65-2-10.94-8.57-11-8.64l-.2.07C1148.38,410.49,1150.7,417.14,1159.47,419.2Z"/><path class="cls-3" d="M1127.66,442.61a26.28,26.28,0,0,0,8.15,3,4,4,0,0,1-5.81,2C1127.55,446.42,1127.66,442.61,1127.66,442.61Z"/><path class="cls-7" d="M1189.94,623.24h0a4.18,4.18,0,0,1-.52,5.58l-13.25,11.54c-1.57,1.38-8.55,5.33-9.83,3.64h0c-1.28-1.69,3-7.4,4.41-9,3.18-3.68,8.11-12.37,11.36-16C1183.52,617.45,1188.66,621.55,1189.94,623.24Z"/><path class="cls-7" d="M1202.91,623.07a84.32,84.32,0,0,1,1.75,22.07c-.16,4-24.9,4.41-25.9,0s3.23-18.52,3.23-18.52Z"/><path class="cls-7" d="M1184.53,632.66s-6.18-4.34-8.34,3.73c-3.52,13.12-.39,44.35,6.42,10.58.13-.67-2.83,20.59,1.58,19.37s6.25-20.21,6.25-20.21-1.4,20.28,2.42,17.68S1199,648,1199,648s-2.66,16.92,2.08,14.49c3.24-1.65,3.42-15.73,3.7-20.63.27-4.62-2.41-6.3-6.57-6.26,0,0-4.17-2.55-6.88-1.78-1,.29-2-.82-2.74-1A25.25,25.25,0,0,0,1184.53,632.66Z"/><path class="cls-9" d="M1117,700.85l.68-.08c0-.3-3.75-30.15-6.54-40.86s-15.79-20.15-15.93-20.25l-.39.56c.13.09,12.9,9.28,15.66,19.86S1116.94,700.55,1117,700.85Z"/><path class="cls-7" d="M1002,485.86h0a3.78,3.78,0,0,1-4.06-3.52l-1.76-18.25c-.21-2.17.51-10.62,2.53-10.86h0c2-.23,4.11,6.77,4.6,8.89,1.13,4.88,5.21,14.06,6.25,19C1010,483.21,1004,485.62,1002,485.86Z"/><path class="cls-7" d="M995.08,497.65S987,494.86,977,487.19c-3-2.33,10.14-24.87,14.09-23.39s12.66,13,12.66,13Z"/><path class="cls-7" d="M997.64,475.83s6.75-3.21,1.64-9.56c-8.29-10.33-34.31-24.54-11.73,0,.44.48-14.49-13.79-15.95-9.15s12.33,16.67,12.33,16.67-15-12.33-15.08-7.46,8.93,14.19,8.93,14.19-11.72-11.63-12.42-6c-.48,3.83,10.39,11.67,14,14.59,3.45,2.77,6.22,1.26,8.46-2.52,0,0,4.26-2.37,5.14-5.23.33-1.1,1.72-1.36,2.24-1.95A29.44,29.44,0,0,0,997.64,475.83Z"/><path class="cls-9" d="M1389.32,874.94s-19.9-110.21-23-113.44-7.85-.36-6.16,5.74S1385,872.71,1386,874.94,1389.88,878,1389.32,874.94Z"/><path class="cls-17" d="M1262,730.67c-.14-19.65,45-78.71,68.49-86.07,26.62-8.34,60.74-23.48,70.76,3.88s-23.55,111.67-23.55,111.67-1.87,7.49-8.67,8.33-90.58,3.77-90.71,0C1278.21,766.07,1250.13,734.68,1262,730.67Z"/><path class="cls-7" d="M1274.62,598.79s-31.26,52.52-73,64.86l7.47,18.1S1262,674,1292.29,619Z"/><path class="cls-9" d="M1242.28,862s.24,8.5-5,11.21-20.55,5.77-14.5,10.89c3.47,2.94,19,0,23.39-.26s8.66,1.56,11.77-1.81c3.43-3.7-1.06-20.89-1.06-20.89s-3.69,2.36-7.12,2.47C1244.84,863.72,1242.28,862,1242.28,862Z"/><path class="cls-9" d="M1188,861.91s.23,8.5-5,11.2-20.56,5.78-14.5,10.9c3.47,2.93,19,0,23.39-.27s8.65,1.57,11.77-1.8c3.43-3.71-1.06-20.89-1.06-20.89s-3.7,2.36-7.12,2.46C1190.59,863.66,1188,861.91,1188,861.91Z"/><path class="cls-15" d="M1182.31,847.87c3.91-55.68,4.83-93.25,21.19-117.38,17.91-26.42,65.93-45.1,84.44-46.27,30.2-1.9,44.43,2.94,44.43,2.94,22.66,50.74-12.84,57.47-39.1,58.86l-2.61.16c-15.9,1.08-44.17,5.42-54.87,22.43-8.47,13.47-14.35,32.38-16.83,81.15-.47,9.35-7.76,16.61-16.47,16.36C1202.49,866.12,1180.91,867.89,1182.31,847.87Z"/><path class="cls-15" d="M1225.17,850.74c-.52-55.84-2.13-84.34,13.44-109.08,10-15.9,25-27.9,44.7-35.66,14-5.55,30.53-9,49-10.12,30.2-1.9,43.76-5.82,43.76-5.82,24.44,65-64.95,51.16-88.22,78.83-10.14,12.06-22.7,35-25.18,83.76-.47,9.36-7.77,16.62-16.47,16.36C1246.24,869,1225.36,871.15,1225.17,850.74Z"/><path class="cls-13" d="M1225.32,795.9c0-.34,1.55-33.46,6.71-45,6.52-14.64,25.45-29.92,45-36.35l-.11-.34c-19.65,6.45-38.67,21.82-45.23,36.54-5.18,11.64-6.72,44.83-6.74,45.16Z"/><path class="cls-6" d="M1354.69,586.93s-12.84-23.64-42.45-16.38-41.68,39.81-43.8,118c0,0,27.42-1.09,99.44,24.63,8.53,3,21,.63,16.67-15C1376.4,669.09,1368.52,611.08,1354.69,586.93Z"/><path class="cls-6" d="M1380.86,593.4l-24,6.6s-53.26,17-68.17,17.09a24,24,0,0,1-21.08-11.61s12-22,37.23-32.34a68.66,68.66,0,0,1,7.45-2.59,51.55,51.55,0,0,1,13.24-2.39C1375.76,567.54,1380.86,593.4,1380.86,593.4Z"/><path class="cls-9" d="M1380.86,593.4c-.06,2.68-7.32,4.84-16.23,4.82s-16.07-2.2-16-4.88,7.33-4.84,16.23-4.82S1380.92,590.72,1380.86,593.4Z"/><path class="cls-7" d="M1337.19,568.53a8.79,8.79,0,0,1-6.51-6.43l-3.13-10.48-.91-3-5.35-17.89-.39,17.93-.23,10.76-.06,3.07c-.06,2.51-.14,5.7-2.6,6.63,0,0-3.13,5.76.57,7.34C1324.39,578.9,1337.2,568.53,1337.19,568.53Z"/><path class="cls-9" d="M1345.05,532.56s-1.34,2.65-1.31,8.89c0,9.15-9.86,10-11.55,6.93-.21-.39,3.85-14.72,3.85-14.72l3.35-1Z"/><path class="cls-9" d="M1327.59,551.33a2.54,2.54,0,0,1,0,.29c-.9,5.7-6.84,7.8-6.84,7.8l0,0,.23-10.76c1.81-.51,4.35-1,5.74,0A2.61,2.61,0,0,1,1327.59,551.33Z"/><ellipse class="cls-7" cx="1324.79" cy="532.59" rx="20.65" ry="15.67" transform="translate(541.88 1726.65) rotate(-78.65)"/><path class="cls-9" d="M1322.74,515.49c.26.73-4.73,10.32,12.34,18s12.33-18.58-.59-22.95c-18.67-6.33-24.89,6.51-24.33,12S1322.74,515.49,1322.74,515.49Z"/><path class="cls-9" d="M1349.35,510s-7.57,2.72-3.75,8.51,16.87,11.68,11.31,17.91-11.51,16.12-5.21,19.43,10.61,4,11.87,10.5,14.21,6.53,15-.54,12.6-10,9.76-17.51-12.29-16.16-12.93-25.08S1355.42,508,1349.35,510Z"/><path class="cls-9" d="M1334,529.64s5.14,10.35.49,18c0,0,5.45-3.7,6-5.51a79.64,79.64,0,0,0,1.14-8.8Z"/><path class="cls-7" d="M1337.06,539.46c-2.15,1.25-4.58.73-5.43-1.17s.22-4.45,2.37-5.7,4.58-.72,5.43,1.17S1339.21,538.21,1337.06,539.46Z"/><path class="cls-3" d="M1373.75,571.66l.33-.42c-1.39-1.1-2.11-2.16-2.19-3.23-.13-1.65,1.26-3.16,2.74-4.77s2.91-3.18,3.12-5.08c.27-2.42-2.26-3.71-4.7-5-1.87-1-3.8-1.94-4.25-3.37a2.86,2.86,0,0,1,.35-2.25c.56-1,1.15-2,1.72-2.83,2.58-4,4.62-7.14.26-17-5.54-12.45-12.16-14.92-18.48-15.73-.77-.1-3.17.3-3.54,1.62s1.46,2.89,5.44,4.67a18.18,18.18,0,0,1,7.83,12.9c.67,4.7-2.9,8.42-6.05,11.69-2.92,3-5.44,5.66-3.11,8.07a22,22,0,0,0,4.26,3.21c3.71,2.35,7.21,4.56,5.83,12.08l.53.1c1.45-7.87-2.21-10.19-6.07-12.63a22,22,0,0,1-4.16-3.13c-2-2,.27-4.38,3.11-7.33,3.07-3.2,6.9-7.17,6.19-12.13a18.78,18.78,0,0,0-8.12-13.31c-5.06-2.26-5.3-3.58-5.17-4,.25-.89,2.23-1.34,3-1.24,6.17.79,12.63,3.21,18.06,15.42,4.24,9.54,2.27,12.58-.22,16.43-.58.9-1.17,1.82-1.74,2.87a3.37,3.37,0,0,0-.39,2.67c.51,1.64,2.55,2.68,4.52,3.69,2.38,1.22,4.63,2.37,4.41,4.43-.19,1.72-1.61,3.27-3,4.76-1.55,1.7-3,3.3-2.88,5.19C1371.45,569.28,1372.23,570.46,1373.75,571.66Z"/><path class="cls-3" d="M1336.77,527.37l.19-.57c-6.42-2.06-8.29-8.68-8.31-8.75l-.59.16C1328.08,518.28,1330,525.22,1336.77,527.37Z"/><path class="cls-10" d="M1309.31,541.59a5.89,5.89,0,0,1-3-2.09,9.26,9.26,0,0,1-1.74-6.42c.38-4.49,3.54-7.88,7.06-7.57a5.66,5.66,0,0,1,3.95,2.28,9.27,9.27,0,0,1,1.75,6.42c-.38,4.48-3.55,7.88-7.06,7.57A4.68,4.68,0,0,1,1309.31,541.59Zm3.24-15.5a4.83,4.83,0,0,0-.92-.18c-3.31-.29-6.3,2.94-6.66,7.2a8.83,8.83,0,0,0,1.66,6.13,5.36,5.36,0,0,0,3.7,2.14c3.31.29,6.29-2.94,6.65-7.21a8.77,8.77,0,0,0-1.66-6.12A5.5,5.5,0,0,0,1312.55,526.09Z"/><path class="cls-10" d="M1324.44,543.68a5.93,5.93,0,0,1-3-2.09,9.25,9.25,0,0,1-1.74-6.42c.38-4.48,3.54-7.88,7.06-7.57a5.73,5.73,0,0,1,4,2.28,9.27,9.27,0,0,1,1.75,6.42h0c-.38,4.49-3.55,7.88-7.06,7.57A4.68,4.68,0,0,1,1324.44,543.68Zm3.24-15.5a4.14,4.14,0,0,0-.92-.17c-3.31-.3-6.3,2.93-6.66,7.2a8.81,8.81,0,0,0,1.66,6.12,5.29,5.29,0,0,0,3.7,2.14c3.31.29,6.3-2.94,6.65-7.2h0a8.78,8.78,0,0,0-1.66-6.13A5.56,5.56,0,0,0,1327.68,528.18Z"/><path class="cls-10" d="M1315.38,534.43a.22.22,0,0,1-.12-.13.2.2,0,0,1,.11-.26,7.42,7.42,0,0,1,5.65.63.2.2,0,0,1,.1.26.18.18,0,0,1-.25.11,7.22,7.22,0,0,0-5.37-.62A.17.17,0,0,1,1315.38,534.43Z"/><path class="cls-18" d="M1313.18,543.08a31.52,31.52,0,0,0,10.75,1.22s-1,5.58-6.63,4.3C1314,547.86,1313.18,543.08,1313.18,543.08Z"/><path class="cls-3" d="M1313.18,543.08a6.91,6.91,0,0,0,3.87,2.32c2.9.85,6.88-1.1,6.88-1.1S1317.26,544.3,1313.18,543.08Z"/><path class="cls-12" d="M1323.28,532.36a.38.38,0,0,1-.17-.29.37.37,0,0,1,.31-.42,3.73,3.73,0,0,1,4.16,2.37.4.4,0,0,1-.14.52c-.17.1-.35,0-.48-.16a5.91,5.91,0,0,0-3.46-2A.34.34,0,0,1,1323.28,532.36Z"/><path class="cls-12" d="M1325,537.21c-.2.89-.84,1.48-1.44,1.33s-.92-1-.72-1.89.84-1.48,1.44-1.33S1325.16,536.32,1325,537.21Z"/><path class="cls-12" d="M1310.57,530.67a.36.36,0,0,1-.26-.19.4.4,0,0,1,.14-.52,3.64,3.64,0,0,1,4.69.48.41.41,0,0,1,0,.54.37.37,0,0,1-.5.06,5.67,5.67,0,0,0-3.9-.41A.35.35,0,0,1,1310.57,530.67Z"/><path class="cls-12" d="M1313.84,534.47c.13.9-.26,1.71-.87,1.82s-1.2-.55-1.33-1.45.25-1.72.86-1.82S1313.71,533.57,1313.84,534.47Z"/><path class="cls-9" d="M1269.66,888.87l1-.1c.76-.08,1.33-1.44,1.27-3l-7.58-201-14.4-7.68,17.46,207.8C1267.52,887.2,1268.52,889,1269.66,888.87Z"/><path class="cls-9" d="M1050.49,888.87l-1-.1c-.76-.08-1.33-1.44-1.27-3l7.58-201,14.4-7.68-17.46,207.8C1052.63,887.2,1051.63,889,1050.49,888.87Z"/><ellipse class="cls-17" cx="1165.96" cy="694.21" rx="130.85" ry="18.23"/><rect class="cls-17" x="1035.12" y="685.8" width="261.69" height="8.41"/><ellipse class="cls-1" cx="1165.96" cy="685.8" rx="130.85" ry="18.23"/><path class="cls-9" d="M1072.27,699a.48.48,0,0,0,.48-.41.49.49,0,0,0-.41-.54c-11-1.57-19.71-3.37-26-5.36a.49.49,0,0,0-.61.31.48.48,0,0,0,.32.6c6.35,2,15.15,3.83,26.16,5.4Z"/><path class="cls-9" d="M1274.62,696.44h.1c.53-.12,12.93-2.85,17.79-5.44a.47.47,0,0,0,.2-.65.49.49,0,0,0-.65-.2c-4.74,2.53-17.42,5.32-17.54,5.35a.48.48,0,0,0,.1,1Z"/><path class="cls-7" d="M1280.92,666.75s-15.72-6.37-20.93-4.07-10.24,9.49-6.73,8.8a35.38,35.38,0,0,0,7.77-2.91s-8.89,5.2-6.86,6.91,9.72-2.89,9.72-2.89-10.12,7.09-7.72,8,10-4.49,10-4.49-9.17,7-6.35,8,7.54-5.84,9.57-4.13,7,9.34,12.15,3.85Z"/><path class="cls-7" d="M1345.44,667.61c-17.83,16.81-35.34,20.07-63.85,16.28l-.67-17.14c20.75,2.76,35.25-9.15,47.2-20.42,17-16,22-40.86,23.4-52.09a2.86,2.86,0,0,1,1.74-2.33c3.11-1.23,10.84-3.24,22.54.42a2.53,2.53,0,0,1,1.69,2.55C1376.62,616.24,1367.88,646.44,1345.44,667.61Z"/><g class="cls-19"><path class="cls-20" d="M1339.51,660.66c-1.83-1.69-1.62-5.22.47-7.88a6.64,6.64,0,0,1,4.46-2.67,3.55,3.55,0,0,1,2.77.89c1.83,1.69,1.62,5.22-.48,7.88h0a6.68,6.68,0,0,1-4.46,2.67l-.35,0A3.52,3.52,0,0,1,1339.51,660.66Zm5-9.54a5.69,5.69,0,0,0-3.75,2.29c-1.77,2.25-2,5.16-.58,6.5a2.6,2.6,0,0,0,2,.63,5.65,5.65,0,0,0,3.74-2.29h0c1.78-2.25,2-5.17.59-6.5a2.5,2.5,0,0,0-1.73-.64Z"/></g><path class="cls-9" d="M1250.39,686.89H1197a2.6,2.6,0,0,1-2.46-1.9l-11.1-35.68a2.75,2.75,0,0,1,2.46-3.65h51.36a5.48,5.48,0,0,1,5.16,4l10.45,33.6A2.75,2.75,0,0,1,1250.39,686.89Z"/><path class="cls-9" d="M1247,686.89h-53.4a2.62,2.62,0,0,1-2.47-1.9l-11.09-35.68a2.75,2.75,0,0,1,2.46-3.65h51.36a5.46,5.46,0,0,1,5.15,4l10.46,33.6A2.75,2.75,0,0,1,1247,686.89Z"/><path class="cls-21" d="M1209.62,665.11c0-1.36,1.45-1.91,2.72-1.91a3.74,3.74,0,0,1,3.32,3.39c0,2-1.5,2.31-2.76,2.31S1209.62,666.83,1209.62,665.11Z"/><path class="cls-9" d="M1266.44,681.85h-72.83v5h74.47a1.7,1.7,0,0,0,1.7-1.69h0A3.34,3.34,0,0,0,1266.44,681.85Z"/><path class="cls-22" d="M1243.24,663.69l.35-.08c-.11-.44-2.66-10.73-4.38-14.06s-3.87-4-4-4.06l-.11.34s2.09.66,3.75,3.89S1243.21,663.59,1243.24,663.69Z"/><path class="cls-22" d="M1251.14,682v-.36c-1.74,0-2.18-.78-2.18-.78l-4.15-13.36-.35.11,4.17,13.38C1248.66,681.09,1249.15,682,1251.14,682Z"/><g class="cls-23"><path class="cls-2" d="M359.56,26s14.17-29.33,50-25.65,31.57,33.07,48.64,30.31,40.95,0,46.07,18.38,28.16,8.26,29,23.88-26.45,26.64-58,12.86S428.33,96.46,384,92s-49.86-9.94-76.12-7.19-25.64-16.6-13.7-29.46S354.44,43.73,359.56,26Z"/></g><path class="cls-2" d="M1322.55,194.3a30.28,30.28,0,0,0-30.36-15.57c-21.76,2.23-19.17,20.08-29.53,18.4s-24.87,0-28,11.16-17.1,5-17.61,14.5,16.06,16.18,35.23,7.81,28.49,6.5,55.43,3.81,30.28-6,46.22-4.37,15.57-10.08,8.32-17.89S1325.66,205.08,1322.55,194.3Z"/><path class="cls-2" d="M238.76,131.29a29.29,29.29,0,0,1,29.35-15c21,2.15,18.54,19.41,28.55,17.79s24,0,27,10.79,16.53,4.85,17,14-15.53,15.63-34.06,7.55-27.55,6.28-53.59,3.68-29.27-5.84-44.69-4.22-15.05-9.75-8-17.3S235.76,141.72,238.76,131.29Z"/><path class="cls-2" d="M947.33,20.08A32,32,0,0,1,979.39,3.63c23,2.35,20.25,21.2,31.19,19.44s26.27,0,29.55,11.78,18.06,5.3,18.61,15.32-17,17.08-37.21,8.24-30.1,6.87-58.55,4-32-6.38-48.82-4.62-16.44-10.64-8.78-18.89S944.05,31.47,947.33,20.08Z"/></g></g></svg>