<svg xmlns="http://www.w3.org/2000/svg" xmlns:xlink="http://www.w3.org/1999/xlink" viewBox="0 0 534.46 237.15"><defs><style>.cls-1{isolation:isolate;}.cls-2{opacity:0.31;}.cls-3,.cls-4,.cls-5,.cls-6,.cls-78{fill:none;stroke:#fff;}.cls-3,.cls-4,.cls-5,.cls-6{stroke-linecap:round;stroke-linejoin:round;stroke-width:0.88px;}.cls-4{stroke-dasharray:4.4 4.4;}.cls-5{stroke-dasharray:4.36 4.36;}.cls-6{stroke-dasharray:4.42 4.42;}.cls-7{fill:url(#linear-gradient);}.cls-8{fill:#0e0092;opacity:0.18;}.cls-26,.cls-29,.cls-32,.cls-34,.cls-36,.cls-41,.cls-44,.cls-46,.cls-51,.cls-8{mix-blend-mode:multiply;}.cls-9{fill:url(#linear-gradient-2);}.cls-10{fill:#def2fb;}.cls-11{fill:#fff;}.cls-12{fill:url(#linear-gradient-3);}.cls-13{fill:#43ffd9;}.cls-14{fill:#ff6570;}.cls-15,.cls-17,.cls-18,.cls-19{fill:#00d1ff;}.cls-16{fill:#ffe000;}.cls-17{opacity:0.75;}.cls-18,.cls-51{opacity:0.22;}.cls-19{opacity:0.48;}.cls-20{fill:#ffd2d2;}.cls-21{fill:#ffdede;}.cls-22{fill:#fccaca;}.cls-23{fill:#f8b024;}.cls-24{fill:url(#linear-gradient-4);}.cls-25,.cls-28,.cls-31,.cls-40{mix-blend-mode:screen;}.cls-25,.cls-28{opacity:0.44;}.cls-25{fill:url(#linear-gradient-5);}.cls-26,.cls-29{opacity:0.42;}.cls-26{fill:url(#linear-gradient-6);}.cls-27{fill:url(#linear-gradient-7);}.cls-28{fill:url(#linear-gradient-8);}.cls-29{fill:url(#linear-gradient-9);}.cls-30{fill:url(#linear-gradient-10);}.cls-31{fill:url(#linear-gradient-11);}.cls-32,.cls-34{opacity:0.3;}.cls-32{fill:url(#linear-gradient-12);}.cls-33{fill:url(#linear-gradient-13);}.cls-34{fill:url(#linear-gradient-14);}.cls-35{fill:url(#linear-gradient-15);}.cls-36,.cls-41{opacity:0.5;}.cls-37{fill:url(#linear-gradient-16);}.cls-38{fill:url(#linear-gradient-17);}.cls-39{fill:url(#linear-gradient-18);}.cls-40{fill:url(#linear-gradient-19);}.cls-41{fill:url(#linear-gradient-20);}.cls-42{fill:url(#linear-gradient-21);}.cls-43{fill:url(#linear-gradient-22);}.cls-44{opacity:0.8;fill:url(#linear-gradient-23);}.cls-45{fill:url(#linear-gradient-24);}.cls-46{fill:#e6f4ff;}.cls-47{fill:url(#linear-gradient-25);}.cls-48{fill:#0bf;}.cls-49{fill:#7fd4ff;}.cls-50,.cls-51{fill:#fc0;}.cls-52{fill:#ffda00;}.cls-53{fill:#ffe356;}.cls-54{fill:#3052e9;}.cls-55{fill:#030478;}.cls-56{fill:url(#linear-gradient-26);}.cls-57{fill:#f8c3c7;}.cls-58{fill:#fcc;}.cls-59{fill:#241d9e;}.cls-60{fill:url(#linear-gradient-27);}.cls-61{fill:url(#linear-gradient-28);}.cls-62{fill:#ff9a25;}.cls-63{fill:url(#linear-gradient-29);}.cls-64,.cls-67{opacity:0.55;}.cls-65,.cls-66,.cls-67{fill:#c2eeff;}.cls-65{opacity:0.69;}.cls-68{fill:url(#linear-gradient-30);}.cls-69{fill:url(#linear-gradient-31);}.cls-70{fill:url(#linear-gradient-32);}.cls-71{fill:url(#linear-gradient-33);}.cls-72{fill:url(#linear-gradient-34);}.cls-73{fill:url(#linear-gradient-35);}.cls-74{fill:#fdb42c;}.cls-75{fill:url(#linear-gradient-36);}.cls-76{fill:url(#linear-gradient-37);}.cls-77{fill:#bfe8f7;}.cls-78{stroke-miterlimit:10;stroke-width:0.62px;}</style><linearGradient id="linear-gradient" x1="262.56" y1="239.52" x2="262.56" y2="207.41" gradientUnits="userSpaceOnUse"><stop offset="0" stop-color="#085eff"/><stop offset="1" stop-color="#0e0092"/></linearGradient><linearGradient id="linear-gradient-2" x1="262.56" y1="40" x2="262.56" y2="257.8" gradientUnits="userSpaceOnUse"><stop offset="0" stop-color="#28e8ff"/><stop offset="1" stop-color="#0129ff"/></linearGradient><linearGradient id="linear-gradient-3" x1="262.56" y1="204.53" x2="262.56" y2="248.37" xlink:href="#linear-gradient"/><linearGradient id="linear-gradient-4" x1="245.88" y1="122.32" x2="261.2" y2="113.93" gradientTransform="translate(89.57 -108.49) rotate(29.13)" gradientUnits="userSpaceOnUse"><stop offset="0" stop-color="#00d1ff"/><stop offset="1" stop-color="#0162ff"/></linearGradient><linearGradient id="linear-gradient-5" x1="238.97" y1="126.55" x2="257.24" y2="116.17" gradientTransform="matrix(1, 0, 0, 1, 0, 0)" xlink:href="#linear-gradient-4"/><linearGradient id="linear-gradient-6" x1="257.21" y1="119.1" x2="241.8" y2="128.96" gradientTransform="matrix(1, 0, 0, 1, 0, 0)" xlink:href="#linear-gradient-4"/><linearGradient id="linear-gradient-7" x1="252.05" y1="119" x2="268.05" y2="110.02" gradientTransform="translate(88.08 -114.25) rotate(29.13)" xlink:href="#linear-gradient-4"/><linearGradient id="linear-gradient-8" x1="249.38" y1="118.86" x2="269.7" y2="108.12" gradientTransform="matrix(1, 0, 0, 1, 0, 0)" xlink:href="#linear-gradient-4"/><linearGradient id="linear-gradient-9" x1="269.39" y1="111.63" x2="250.97" y2="122.66" gradientTransform="matrix(1, 0, 0, 1, 0, 0)" xlink:href="#linear-gradient-4"/><linearGradient id="linear-gradient-10" x1="260.07" y1="116.72" x2="297.13" y2="94.29" gradientUnits="userSpaceOnUse"><stop offset="0.01" stop-color="#ff9a25"/><stop offset="1" stop-color="#ffe000"/></linearGradient><linearGradient id="linear-gradient-11" x1="256.23" y1="108.79" x2="289.66" y2="80.74" gradientUnits="userSpaceOnUse"><stop offset="0" stop-color="#ffe000"/><stop offset="1" stop-color="#ffe000" stop-opacity="0"/></linearGradient><linearGradient id="linear-gradient-12" x1="255.61" y1="121.36" x2="303.17" y2="107.25" xlink:href="#linear-gradient-10"/><linearGradient id="linear-gradient-13" x1="286.21" y1="99.77" x2="319.39" y2="81.52" gradientTransform="translate(81.88 -138.08) rotate(29.13)" xlink:href="#linear-gradient-10"/><linearGradient id="linear-gradient-14" x1="288.56" y1="90.23" x2="320.46" y2="90.23" xlink:href="#linear-gradient-10"/><linearGradient id="linear-gradient-15" x1="297.09" y1="73.52" x2="332.6" y2="133.35" gradientTransform="matrix(1, 0, 0, 1, 0, 0)" xlink:href="#linear-gradient-4"/><linearGradient id="linear-gradient-16" x1="289.6" y1="85.51" x2="325.53" y2="85.51" gradientTransform="matrix(1, 0, 0, 1, 0, 0)" xlink:href="#linear-gradient-4"/><linearGradient id="linear-gradient-17" x1="284.75" y1="90.48" x2="327.05" y2="90.48" gradientTransform="matrix(1, 0, 0, 1, 0, 0)" xlink:href="#linear-gradient-4"/><linearGradient id="linear-gradient-18" x1="304.29" y1="89.6" x2="294.06" y2="96.72" gradientTransform="matrix(1, 0, 0, 1, 0, 0)" xlink:href="#linear-gradient-4"/><linearGradient id="linear-gradient-19" x1="304.49" y1="79.84" x2="292.1" y2="88.12" gradientTransform="matrix(1, 0, 0, 1, 0, 0)" xlink:href="#linear-gradient-4"/><linearGradient id="linear-gradient-20" x1="319.35" y1="90.55" x2="299.57" y2="101.36" gradientTransform="matrix(1, 0, 0, 1, 0, 0)" xlink:href="#linear-gradient-4"/><linearGradient id="linear-gradient-21" x1="304.53" y1="83.79" x2="317.8" y2="109.36" gradientTransform="matrix(1, 0, 0, 1, 0, 0)" xlink:href="#linear-gradient-4"/><linearGradient id="linear-gradient-22" x1="262.88" y1="177.93" x2="262.88" y2="226.35" xlink:href="#linear-gradient"/><linearGradient id="linear-gradient-23" x1="265.82" y1="205.29" x2="265.82" y2="165.33" gradientTransform="matrix(1, 0, 0, 1, 0, 0)" xlink:href="#linear-gradient-4"/><linearGradient id="linear-gradient-24" x1="284.62" y1="96.51" x2="359.54" y2="59.81" xlink:href="#linear-gradient-10"/><linearGradient id="linear-gradient-25" x1="126.62" y1="156.82" x2="126.62" y2="228.95" gradientUnits="userSpaceOnUse"><stop offset="0" stop-color="#ff6570"/><stop offset="1" stop-color="#ec374f"/></linearGradient><linearGradient id="linear-gradient-26" x1="454.23" y1="152.06" x2="404.9" y2="107.2" xlink:href="#linear-gradient"/><linearGradient id="linear-gradient-27" x1="450.09" y1="124.76" x2="394.06" y2="124.76" xlink:href="#linear-gradient"/><linearGradient id="linear-gradient-28" x1="402.14" y1="132.88" x2="402.14" y2="85.59" gradientTransform="translate(9.67 -39.47) rotate(4.64)" gradientUnits="userSpaceOnUse"><stop offset="0.13" stop-color="#00a373"/><stop offset="1" stop-color="#43ffd9"/></linearGradient><linearGradient id="linear-gradient-29" x1="389.68" y1="266.59" x2="389.68" y2="131.21" xlink:href="#linear-gradient-10"/><linearGradient id="linear-gradient-30" x1="151.44" y1="156.14" x2="151.44" y2="126.84" xlink:href="#linear-gradient-10"/><linearGradient id="linear-gradient-31" x1="141.54" y1="175.73" x2="141.54" y2="244.26" xlink:href="#linear-gradient"/><linearGradient id="linear-gradient-32" x1="154.02" y1="188.39" x2="154.02" y2="149.28" xlink:href="#linear-gradient-10"/><linearGradient id="linear-gradient-33" x1="336.8" y1="148.27" x2="326.78" y2="178.97" xlink:href="#linear-gradient-25"/><linearGradient id="linear-gradient-34" x1="334.67" y1="162.52" x2="334.67" y2="214.73" xlink:href="#linear-gradient"/><linearGradient id="linear-gradient-35" x1="330.64" y1="170.91" x2="330.64" y2="230.08" xlink:href="#linear-gradient"/><linearGradient id="linear-gradient-36" x1="299.25" y1="148.92" x2="333.94" y2="151.31" xlink:href="#linear-gradient-25"/><linearGradient id="linear-gradient-37" x1="324.89" y1="144.43" x2="324.89" y2="184.48" xlink:href="#linear-gradient-25"/></defs><g class="cls-1"><g id="Layer_2" data-name="Layer 2"><g id="OBJECTS"><g class="cls-2"><path class="cls-3" d="M168.13,219.83l-2.2.12"/><path class="cls-4" d="M161.54,220.19C38.4,226.63,2.79,213.9,9,173.38c13.19-85.63,296.44-28.73,416.89-25.56C527.28,150.49,557.09,15.3,382.31,27.27c-14.62,1-44.42,18.18-44,58.82"/><path class="cls-3" d="M338.36,88.29c0,.72.07,1.45.11,2.19"/><path class="cls-3" d="M317.15,82.06a15.85,15.85,0,0,0,1.26-1.8"/><path class="cls-5" d="M320.33,76.35c3.25-8,4.73-20,3.82-27.68C323,38.82,318,30,311.36,26.1c-8.78-5.16-18.77-1.76-28.17.39-25.15,5.73-50.89,1.82-76.07-3.57s-50.35-12.28-75.83-12.48-51.75,6.79-72.7,26.88c-6.75,6.48-13,14.56-16.26,25S39.55,86,45.09,94.41C51.44,104.06,62,104.85,71.45,105l76.22.87"/><path class="cls-3" d="M149.86,105.86l2.2,0"/><path class="cls-3" d="M267,214.57h2.2"/><path class="cls-6" d="M273.58,214.59q109.23.38,218.45-.54c9-.07,18.26-.2,26.54-3.41S534,200.36,534,192.14c0-11.12-12.22-18.8-23.69-22.52-22.17-7.18-46.22-7.3-69.75-7.34L288.28,162"/><path class="cls-3" d="M286.07,162h-2.2"/></g><rect class="cls-7" x="238.84" y="208.4" width="47.44" height="18.33"/><rect class="cls-8" x="238.84" y="208.4" width="47.44" height="6.9"/><rect class="cls-9" x="136.14" y="68.88" width="252.85" height="143.15" rx="8.99"/><rect class="cls-10" x="142.81" y="75.37" width="239.5" height="130.16" rx="5.66"/><rect class="cls-11" x="142.81" y="83.77" width="239.5" height="113.36"/><rect class="cls-12" x="191.57" y="226.73" width="141.98" height="5.33" rx="2.46"/><path class="cls-13" d="M152.83,129.56a20.7,20.7,0,1,0-1.39-7.47A20.63,20.63,0,0,0,152.83,129.56ZM161.58,116a12.1,12.1,0,1,1,10.78,18.15l-.3,0A12.12,12.12,0,0,1,160,122.09,12,12,0,0,1,161.58,116Z"/><path class="cls-14" d="M172.06,142.7v-8.5l.3,0a12.09,12.09,0,0,0,7.85-21l5.66-6.35a20.6,20.6,0,0,1-13.81,35.9Z"/><path class="cls-15" d="M151.44,122.09a20.55,20.55,0,0,1,2.82-10.42l7.32,4.36a12.08,12.08,0,0,0-.78,10.51l-8,3A20.61,20.61,0,0,1,151.44,122.09Z"/><path class="cls-16" d="M154.26,111.67a20.61,20.61,0,0,1,31.62-4.87l-5.67,6.35A12.1,12.1,0,0,0,161.58,116Z"/><path class="cls-10" d="M210.76,102.87a20.59,20.59,0,1,0,7.46-1.4A20.32,20.32,0,0,0,210.76,102.87Zm13.52,8.75a12.1,12.1,0,1,1-18.15,10.78c0-.1,0-.2,0-.31a12.08,12.08,0,0,1,7.65-11.25,11.79,11.79,0,0,1,4.45-.85A12,12,0,0,1,224.28,111.62Z"/><path class="cls-17" d="M197.61,122.09h8.51c0,.11,0,.21,0,.31a12.09,12.09,0,0,0,21,7.84l6.35,5.67a20.61,20.61,0,0,1-35.9-13.82Z"/><path class="cls-18" d="M218.22,101.47a20.45,20.45,0,0,1,10.42,2.83l-4.36,7.32a12.13,12.13,0,0,0-10.51-.79l-3-8A20.52,20.52,0,0,1,218.22,101.47Z"/><path class="cls-19" d="M228.64,104.3a20.6,20.6,0,0,1,4.87,31.61l-6.35-5.67a12.09,12.09,0,0,0-2.88-18.62Z"/><path class="cls-10" d="M231,155.22H158.52a2.48,2.48,0,0,1-2.48-2.47v-.41a2.48,2.48,0,0,1,2.48-2.48H231a2.48,2.48,0,0,1,2.48,2.48v.41A2.48,2.48,0,0,1,231,155.22Zm0,3.81H158.52a2.48,2.48,0,0,0-2.48,2.48v.41a2.48,2.48,0,0,0,2.48,2.48H231a2.48,2.48,0,0,0,2.48-2.48v-.41A2.48,2.48,0,0,0,231,159Zm0,9.17H158.52a2.48,2.48,0,0,0-2.48,2.48v.41a2.48,2.48,0,0,0,2.48,2.48H231a2.48,2.48,0,0,0,2.48-2.48v-.41A2.48,2.48,0,0,0,231,168.2Zm0,9.17H158.52a2.48,2.48,0,0,0-2.48,2.48v.41a2.48,2.48,0,0,0,2.48,2.48H231a2.48,2.48,0,0,0,2.48-2.48v-.41A2.48,2.48,0,0,0,231,177.37Z"/><rect class="cls-10" x="290.29" y="110.93" width="82.51" height="79.48" rx="7"/><path class="cls-11" d="M321.66,146.4H300.59a4.11,4.11,0,0,1-4.1-4.11V121.23a4.1,4.1,0,0,1,4.1-4.1h21.07a4.1,4.1,0,0,1,4.1,4.1v21.06A4.11,4.11,0,0,1,321.66,146.4Zm44.93-26.12v-.21a1.25,1.25,0,0,0-1.24-1.24H331.13a1.24,1.24,0,0,0-1.24,1.24v.21a1.24,1.24,0,0,0,1.24,1.24h34.22A1.25,1.25,0,0,0,366.59,120.28Zm0,7.52v.2a1.24,1.24,0,0,1-1.24,1.24H331.13a1.23,1.23,0,0,1-1.24-1.24v-.2a1.23,1.23,0,0,1,1.24-1.24h34.22A1.24,1.24,0,0,1,366.59,127.8Zm0,7.72v.21a1.25,1.25,0,0,1-1.24,1.24H331.13a1.24,1.24,0,0,1-1.24-1.24v-.21a1.24,1.24,0,0,1,1.24-1.24h34.22A1.25,1.25,0,0,1,366.59,135.52Zm0,7.73v.2a1.24,1.24,0,0,1-1.24,1.24H331.13a1.23,1.23,0,0,1-1.24-1.24v-.2a1.23,1.23,0,0,1,1.24-1.24h34.22A1.24,1.24,0,0,1,366.59,143.25Z"/><path class="cls-11" d="M321.66,184.11H300.59a4.11,4.11,0,0,1-4.1-4.11V158.94a4.1,4.1,0,0,1,4.1-4.1h21.07a4.1,4.1,0,0,1,4.1,4.1V180A4.11,4.11,0,0,1,321.66,184.11ZM366.59,158v-.21a1.25,1.25,0,0,0-1.24-1.24H331.13a1.24,1.24,0,0,0-1.24,1.24V158a1.24,1.24,0,0,0,1.24,1.24h34.22A1.25,1.25,0,0,0,366.59,158Zm0,7.52v.2a1.24,1.24,0,0,1-1.24,1.24H331.13a1.23,1.23,0,0,1-1.24-1.24v-.2a1.23,1.23,0,0,1,1.24-1.24h34.22A1.24,1.24,0,0,1,366.59,165.51Zm0,7.72v.2a1.25,1.25,0,0,1-1.24,1.25H331.13a1.24,1.24,0,0,1-1.24-1.25v-.2a1.24,1.24,0,0,1,1.24-1.24h34.22A1.25,1.25,0,0,1,366.59,173.23Zm0,7.72v.21a1.25,1.25,0,0,1-1.24,1.24H331.13a1.24,1.24,0,0,1-1.24-1.24V181a1.24,1.24,0,0,1,1.24-1.24h34.22A1.25,1.25,0,0,1,366.59,181Z"/><path class="cls-20" d="M253.72,167.46c6.47,2.79,14.7,2.93,20.15,1.86l-1.33-7.53-17.83-15.85Z"/><path class="cls-21" d="M257.5,168.76a28.06,28.06,0,0,1-3.78-1.3l1-21.52,3.74,3.32A184.09,184.09,0,0,0,257.5,168.76Z"/><path class="cls-22" d="M263.34,169.77a38.68,38.68,0,0,0,10.53-.45l-1.33-7.53-10.92-6A133,133,0,0,0,263.34,169.77Z"/><path class="cls-22" d="M266.35,130.39c5.67-2,10.15-.72,14.5,6.74s10.38,13.93,7.51,16.23-8.48,9-17,8.39C258.66,160.79,249.81,136.37,266.35,130.39Z"/><path class="cls-23" d="M281.93,156.15h0a5.8,5.8,0,0,1-7.89-2.24l-18.22-32.68,14.47-8.07L284.5,149A5.8,5.8,0,0,1,281.93,156.15Z"/><rect class="cls-24" x="243.46" y="109.29" width="20.19" height="17.65" rx="8.16" transform="translate(-25.43 138.37) rotate(-29.13)"/><path class="cls-25" d="M248.23,116.93l6.27-3.49a6.51,6.51,0,0,1,8.85,2.51l2,3.55a6.33,6.33,0,0,0-.78-2.45l-2.26-4a6.51,6.51,0,0,0-8.85-2.52l-6.27,3.5a6.5,6.5,0,0,0-2.51,8.85l.28.51A6.52,6.52,0,0,1,248.23,116.93Z"/><path class="cls-26" d="M263.51,115.23l-2.26-4.06a6.59,6.59,0,0,0-1.05-1.39l1.18,2.12a6.51,6.51,0,0,1-2.52,8.85l-6.27,3.5a6.51,6.51,0,0,1-7.8-1.13l1.08,1.94a6.51,6.51,0,0,0,8.85,2.51l6.27-3.49A6.51,6.51,0,0,0,263.51,115.23Z"/><rect class="cls-27" x="249.42" y="99.7" width="28.94" height="25.31" rx="10.37" transform="translate(-21.32 142.68) rotate(-29.13)"/><path class="cls-28" d="M254.42,109.92,266,103.49a7.87,7.87,0,0,1,10.7,3.05l4,7.1a7.84,7.84,0,0,0-.9-2.59l-4.66-8.36a7.86,7.86,0,0,0-10.7-3l-11.54,6.43a7.86,7.86,0,0,0-3,10.7l.7,1.26A7.87,7.87,0,0,1,254.42,109.92Z"/><path class="cls-29" d="M278.86,109.5l-4.66-8.37a7.79,7.79,0,0,0-3-3l.12.2,4.66,8.36a7.87,7.87,0,0,1-3,10.7l-11.54,6.43a7.87,7.87,0,0,1-7.71,0,7.87,7.87,0,0,0,10.58,2.84l11.54-6.43A7.87,7.87,0,0,0,278.86,109.5Z"/><path class="cls-30" d="M322.32,116.65c-20.62,1.33-32.05-1.33-44.74,5.72-8.63,4.81-23.63-22.14-15-26.95C276.39,87.74,280,77,291,60.41Z"/><path class="cls-31" d="M264.81,102.21C278.62,94.53,283,85.3,293.9,68.71l-1.31-3c-10.95,16.59-15.29,25.82-29.09,33.5-4,2.22-2,8.75,1.18,15.11C262.64,108.9,261.45,104.08,264.81,102.21Z"/><path class="cls-32" d="M319.09,110.84c-19.94,1.18-31.2-1.27-43.67,5.67-4.69,2.61-11.27-4.17-14.91-11.68,2.23,9.19,11.15,20.84,17.07,17.54,12.69-7.05,24.12-4.39,44.74-5.72Z"/><ellipse class="cls-33" cx="306.65" cy="88.53" rx="10.35" ry="32.19" transform="translate(-4.31 160.48) rotate(-29.13)"/><path class="cls-34" d="M320.08,117.08c1.56-5.7-1.72-17.72-8.67-30.18-7.53-13.51-16.88-23.08-22.47-23.51-1.56,5.7,1.72,17.71,8.67,30.18C305.14,107.08,314.49,116.65,320.08,117.08Z"/><path class="cls-35" d="M318.29,82c-9.74-17.49-23.07-28.63-29.77-24.9S284.28,78.08,294,95.56s23.07,28.63,29.77,24.9S328,99.52,318.29,82Zm4,34.61c-5,2.78-16.06-7.55-24.71-23.08S286,63.19,291,60.41,307,68,315.69,83.49,327.31,113.86,322.32,116.65Z"/><g class="cls-36"><path class="cls-37" d="M316.48,81.39c-8.66-15.53-19.72-25.86-24.71-23.08a4.86,4.86,0,0,0-2.17,3.48A3.73,3.73,0,0,1,291,60.41C296,57.62,307,68,315.69,83.49c6.75,12.1,10,23.79,8.8,29.67C327.36,108.41,324.16,95.18,316.48,81.39Z"/><path class="cls-38" d="M324.59,118.36c-6.7,3.73-20-7.41-29.78-24.9-7.43-13.34-10.63-26.52-8.75-33.67-3.31,6.41-.27,21,8,35.77,9.74,17.49,23.07,28.63,29.77,24.9a7.27,7.27,0,0,0,3.25-4.75A6.21,6.21,0,0,1,324.59,118.36Z"/></g><path class="cls-39" d="M297.61,93.57a94.82,94.82,0,0,0,5.94,9.36l8.75-4.88L301.52,78.71l-8.75,4.88A95.38,95.38,0,0,0,297.61,93.57Z"/><path class="cls-40" d="M295.13,88.83s-1.66-3.53-2.36-5.24l8.75-4.88L304.44,84Z"/><path class="cls-41" d="M308.44,92.77l-8.51,4.74q1.77,2.88,3.62,5.42l8.75-4.88Z"/><path class="cls-42" d="M310,86.65c3,5.34,4,10.44,2.28,11.4s-5.52-2.6-8.5-7.94-4-10.44-2.28-11.4S307,81.31,310,86.65Z"/><path class="cls-21" d="M286.79,147.33c2.7-.69,5.48,4.31,2,6.39a23.83,23.83,0,0,1-8.47,3.14c-2.72.4-3.91-3.26-1.19-5.39A22,22,0,0,1,286.79,147.33Z"/><path class="cls-20" d="M280.34,156.86a24.11,24.11,0,0,0,8.47-3.14,3.14,3.14,0,0,0,1.53-3.5,4,4,0,0,1-.64.48,23.89,23.89,0,0,1-8.47,3.14,2.29,2.29,0,0,1-2.66-1.84C276.62,154.15,277.84,157.23,280.34,156.86Z"/><path class="cls-21" d="M285.13,140.86c3.18-.82,6.47,5.09,2.38,7.54a28.23,28.23,0,0,1-10,3.71c-3.21.47-4.62-3.85-1.41-6.36A25.74,25.74,0,0,1,285.13,140.86Z"/><path class="cls-20" d="M277.51,152.11a28.23,28.23,0,0,0,10-3.71,3.71,3.71,0,0,0,1.75-4.36,3.73,3.73,0,0,1-1.75,2.15,28.44,28.44,0,0,1-10,3.71,2.69,2.69,0,0,1-3.05-1.86C273.77,150.24,275.16,152.46,277.51,152.11Z"/><path class="cls-21" d="M280.49,133.36c3.39-1.78,8.71,4,4.74,7.91a32.91,32.91,0,0,1-10.33,6.9c-3.52,1.4-6.28-3.11-3.32-6.83A30.25,30.25,0,0,1,280.49,133.36Z"/><path class="cls-20" d="M274.9,148.17a32.91,32.91,0,0,0,10.33-6.9,4.28,4.28,0,0,0,1.14-4.68,4.64,4.64,0,0,1-1.14,1.69,32.91,32.91,0,0,1-10.33,6.9,3.2,3.2,0,0,1-4.32-2C269.53,146.35,272,149.35,274.9,148.17Z"/><path class="cls-21" d="M275,127.55c3.14-1.65,8.08,3.74,4.4,7.34a41,41,0,0,1-8.83,6.79c-3.43,1.74-6.51-2.2-3.76-5.65S272.29,129,275,127.55Z"/><path class="cls-20" d="M270.55,141.68a40.94,40.94,0,0,0,8.82-6.78,4.09,4.09,0,0,0,.48-5.49,4,4,0,0,1-1.31,2.83,40,40,0,0,1-8.82,6.78,3.18,3.18,0,0,1-4-.6A3.21,3.21,0,0,0,270.55,141.68Z"/><path class="cls-21" d="M271.3,123.86c3.24,0,5.81,6.39-4.47,11.3.2,2.73-1.74,4.52.18,6.84,2.93,3.55,4.46,5.55,3.84,9.36s-5.43,6.42-10.12,4-11.54-14.5.64-25.32c1.12-1,6.52-3.73,7-4.23C269.94,124.17,270.43,123.86,271.3,123.86Z"/><path class="cls-20" d="M260.73,155.33c4.69,2.45,9.49,0,10.12-4s-.91-5.81-3.84-9.36c-1.92-2.32,0-4.11-.18-6.84,10.28-4.91,7.71-11.29,4.47-11.3h-.2c1.38,2.13.64,6.43-6.77,10,.2,2.72-1.73,4.51.19,6.84,2.92,3.55,4.46,5.55,3.84,9.36C267.78,153.59,266.31,155.26,260.73,155.33Z"/><rect class="cls-11" x="251.1" y="162" width="23.56" height="35.14"/><rect class="cls-43" x="248.67" y="166.31" width="28.41" height="30.83"/><path class="cls-44" d="M277.09,197.13H254.55a83.31,83.31,0,0,0,12.75-30.82h9.79Z"/><path class="cls-45" d="M314.63,64.19a2.33,2.33,0,0,1-2-3.6l20.74-32.24a2.34,2.34,0,0,1,3.93,2.53L316.6,63.12A2.34,2.34,0,0,1,314.63,64.19ZM329.1,78.42l34.28-17.16a2.34,2.34,0,1,0-2.1-4.18L327,74.24a2.33,2.33,0,0,0-1,3.14,2.3,2.3,0,0,0,.89,1A2.34,2.34,0,0,0,329.1,78.42ZM334,99.5,372.29,98a2.34,2.34,0,1,0-.18-4.67l-38.3,1.53a2.34,2.34,0,0,0-2.25,2.42A2.31,2.31,0,0,0,332,98.5,2.35,2.35,0,0,0,334,99.5Z"/><path class="cls-11" d="M151.05,79.82a1.42,1.42,0,1,1-1.42-1.42A1.42,1.42,0,0,1,151.05,79.82Zm3.21-1.42a1.42,1.42,0,1,0,1.42,1.42A1.43,1.43,0,0,0,154.26,78.4Zm4.63,0a1.42,1.42,0,1,0,1.42,1.42A1.43,1.43,0,0,0,158.89,78.4Z"/><rect class="cls-46" x="91.66" y="178.25" width="78.41" height="53.81" rx="11.41"/><rect class="cls-47" x="87.42" y="178.25" width="78.41" height="53.81" rx="11.41"/><path class="cls-11" d="M115.43,216.38V193.93a2.32,2.32,0,0,1,3.56-2l17.75,11.23a2.32,2.32,0,0,1,0,3.92L119,218.35A2.32,2.32,0,0,1,115.43,216.38Z"/><path class="cls-46" d="M106.37,109.23h22.79a3.24,3.24,0,0,1,3.25,3.24V128a3.24,3.24,0,0,1-3.25,3.25h-1.65l3.58,3.64-9.33-3.64H106.37a3.24,3.24,0,0,1-3.24-3.25V112.47A3.24,3.24,0,0,1,106.37,109.23Z"/><rect class="cls-11" x="100.94" y="107.52" width="29.28" height="21.97" rx="3.79" transform="translate(231.17 237.01) rotate(180)"/><polyline class="cls-11" points="124.24 128.39 128.9 133.13 116.76 128.39"/><path class="cls-10" d="M127,114.89H104.12a.85.85,0,0,1-.85-.85.86.86,0,0,1,.85-.86H127a.86.86,0,1,1,0,1.71Zm.86,3.61a.85.85,0,0,0-.86-.85H104.12a.86.86,0,0,0,0,1.71H127A.85.85,0,0,0,127.9,118.5Zm0,4.47a.86.86,0,0,0-.86-.86H104.12a.86.86,0,0,0-.85.86.85.85,0,0,0,.85.85H127A.85.85,0,0,0,127.9,123Z"/><path class="cls-46" d="M442.53,42.55H419.74a3.24,3.24,0,0,0-3.24,3.25V61.28a3.24,3.24,0,0,0,3.24,3.24h1.66l-3.58,3.64,9.33-3.64h15.38a3.24,3.24,0,0,0,3.25-3.24V45.8A3.24,3.24,0,0,0,442.53,42.55Z"/><rect class="cls-11" x="413.97" y="40.84" width="29.28" height="21.97" rx="3.79"/><polyline class="cls-11" points="419.95 61.71 415.29 66.45 427.44 61.71"/><path class="cls-10" d="M416.3,47.36a.86.86,0,0,1,.85-.86h22.92a.86.86,0,1,1,0,1.72H417.15A.86.86,0,0,1,416.3,47.36Zm.85,5.32h22.92a.86.86,0,1,0,0-1.71H417.15a.86.86,0,0,0,0,1.71Zm0,4.47h22.92a.86.86,0,1,0,0-1.71H417.15a.85.85,0,0,0-.85.85A.86.86,0,0,0,417.15,57.15Z"/><path class="cls-11" d="M465.86,127.17V124h-1.35a6.07,6.07,0,0,0-.29-.7l.95-1-2.25-2.26-1,1a5.28,5.28,0,0,0-.69-.29v-1.35h-3.19v1.35a6.07,6.07,0,0,0-.7.29l-.95-1-2.26,2.26,1,1a6.07,6.07,0,0,0-.29.7h-1.35v3.19h1.35a6.07,6.07,0,0,0,.29.7l-1,.95,2.26,2.25.95-.95a6.07,6.07,0,0,0,.7.29v1.35h3.19v-1.35a5.28,5.28,0,0,0,.69-.29l1,.95,2.25-2.25-.95-.95a6.07,6.07,0,0,0,.29-.7Zm-6.19,1.61a3.21,3.21,0,1,1,3.21-3.21A3.21,3.21,0,0,1,459.67,128.78Zm10.38,11.8v-1.67h-.71a2.39,2.39,0,0,0-.15-.37l.5-.5-1.18-1.18-.5.5-.37-.16v-.7H466v.7l-.37.16-.5-.5L463.92,138l.5.5c-.06.12-.11.24-.16.37h-.7v1.67h.7c.05.13.1.25.16.37l-.5.5,1.18,1.18.5-.5a2.39,2.39,0,0,0,.37.15V143h1.67v-.71a2.39,2.39,0,0,0,.37-.15l.5.5,1.18-1.18-.5-.5a2.39,2.39,0,0,0,.15-.37Zm-3.25.85a1.69,1.69,0,1,1,1.69-1.69A1.69,1.69,0,0,1,466.8,141.43Z"/><path class="cls-11" d="M74,152.63,72.27,150l-1.11.73a5.08,5.08,0,0,0-.61-.42l.26-1.3-3.06-.63-.27,1.3a4.7,4.7,0,0,0-.73.14L66,148.72l-2.61,1.72.73,1.11a4.22,4.22,0,0,0-.42.62l-1.3-.27L61.79,155l1.3.27a4.48,4.48,0,0,0,.14.73l-1.11.73,1.72,2.61,1.11-.72a5,5,0,0,0,.61.41l-.27,1.3,3.07.63.27-1.3a4.66,4.66,0,0,0,.73-.13l.73,1.1,2.61-1.72-.73-1.1a6.15,6.15,0,0,0,.42-.62l1.3.27.63-3.07-1.3-.27a4.93,4.93,0,0,0-.14-.73Zm-4.2,4.66a3.15,3.15,0,1,1,.9-4.37A3.15,3.15,0,0,1,69.79,157.29ZM58,156.94l-1.08-1.64-.7.45a3.77,3.77,0,0,0-.39-.26l.17-.81-1.93-.4-.17.81a3.58,3.58,0,0,0-.45.09l-.46-.69-1.65,1.08.46.69a4.4,4.4,0,0,0-.26.39l-.82-.17-.39,1.93.81.17a3.73,3.73,0,0,0,.09.46l-.7.45,1.08,1.65.7-.46a2,2,0,0,0,.39.26l-.17.82,1.93.4.17-.82.45-.09.46.7,1.65-1.08-.46-.7a2.65,2.65,0,0,0,.26-.39l.82.17.39-1.92-.81-.17a3.4,3.4,0,0,0-.09-.46Zm-2.65,2.93a2,2,0,1,1,.57-2.74A2,2,0,0,1,55.36,159.87Z"/><path class="cls-11" d="M235.68,43.65l-2.33-3.55-1.51,1a6.77,6.77,0,0,0-.83-.57l.36-1.76-4.16-.86-.37,1.76a6.91,6.91,0,0,0-1,.19l-1-1.5-3.55,2.33,1,1.51a6.19,6.19,0,0,0-.57.84L220,42.66l-.86,4.16,1.76.37a6.91,6.91,0,0,0,.19,1l-1.5,1,2.33,3.55,1.51-1a6.19,6.19,0,0,0,.84.57l-.37,1.76,4.16.86.37-1.76a6.91,6.91,0,0,0,1-.19l1,1.5,3.55-2.33-1-1.51a6.77,6.77,0,0,0,.57-.83l1.76.36.86-4.16-1.76-.37a6.91,6.91,0,0,0-.19-1ZM230,50a4.28,4.28,0,1,1,1.23-5.93A4.28,4.28,0,0,1,230,50Zm-16-.48-1.47-2.23-.94.62a6.18,6.18,0,0,0-.53-.36l.23-1.11-2.62-.54L208.41,47a6.18,6.18,0,0,0-.62.12l-.62-.94-2.24,1.47.63.94a3.54,3.54,0,0,0-.36.53l-1.11-.23-.54,2.62,1.11.23a3.39,3.39,0,0,0,.12.62l-.95.62,1.47,2.24.95-.63a3.71,3.71,0,0,0,.52.36l-.23,1.11,2.62.54.23-1.11a4.66,4.66,0,0,0,.63-.12l.62,1,2.23-1.47-.62-1a4.3,4.3,0,0,0,.35-.52l1.11.22.54-2.61-1.11-.23a4.62,4.62,0,0,0-.11-.63Zm-3.59,4a2.69,2.69,0,1,1,.77-3.73A2.7,2.7,0,0,1,210.38,53.5Z"/><circle class="cls-48" cx="140.24" cy="48.17" r="9.98" transform="translate(-7.78 56.96) rotate(-22.36)"/><path class="cls-11" d="M139.54,56.55V54.49a5.93,5.93,0,0,1-3.12-.9l.49-1.36a5.41,5.41,0,0,0,2.94.87c1.45,0,2.43-.83,2.43-2s-.8-1.81-2.31-2.43c-2.08-.81-3.37-1.75-3.37-3.53a3.35,3.35,0,0,1,3.08-3.28V39.79H141v2a5.5,5.5,0,0,1,2.65.72l-.51,1.35a4.86,4.86,0,0,0-2.57-.7c-1.57,0-2.16.94-2.16,1.76,0,1.06.75,1.59,2.53,2.32,2.1.86,3.16,1.92,3.16,3.74a3.55,3.55,0,0,1-3.22,3.47v2.12Z"/><circle class="cls-48" cx="291.42" cy="35.76" r="10.96" transform="translate(209.59 317.73) rotate(-80.81)"/><path class="cls-11" d="M290.65,45V42.7a6.55,6.55,0,0,1-3.42-1l.53-1.5a6,6,0,0,0,3.23,1c1.59,0,2.67-.92,2.67-2.19s-.88-2-2.54-2.67c-2.28-.9-3.69-1.93-3.69-3.88a3.66,3.66,0,0,1,3.38-3.6V26.56h1.39v2.18a5.91,5.91,0,0,1,2.91.78L294.55,31a5.41,5.41,0,0,0-2.82-.76c-1.73,0-2.38,1-2.38,1.93,0,1.16.83,1.74,2.78,2.55,2.31.94,3.48,2.11,3.48,4.1a3.9,3.9,0,0,1-3.54,3.81V45Z"/><circle class="cls-48" cx="450.37" cy="80.83" r="8.04" transform="translate(298.63 512.5) rotate(-80.81)"/><path class="cls-11" d="M449.81,87.58V85.92a4.8,4.8,0,0,1-2.51-.73l.39-1.1a4.43,4.43,0,0,0,2.37.71c1.17,0,2-.68,2-1.61s-.64-1.47-1.86-2c-1.68-.66-2.71-1.42-2.71-2.85a2.7,2.7,0,0,1,2.48-2.65V74.07h1v1.6a4.37,4.37,0,0,1,2.14.57l-.41,1.09a4,4,0,0,0-2.08-.56c-1.26,0-1.74.76-1.74,1.42,0,.85.61,1.28,2,1.87,1.69.69,2.55,1.55,2.55,3a2.87,2.87,0,0,1-2.6,2.8v1.71Z"/><path class="cls-48" d="M76.47,190.41a6.1,6.1,0,1,1-6.1-6.1A6.1,6.1,0,0,1,76.47,190.41Z"/><path class="cls-11" d="M70,195.53v-1.26a3.65,3.65,0,0,1-1.91-.55l.3-.83a3.42,3.42,0,0,0,1.8.53c.88,0,1.48-.51,1.48-1.22s-.49-1.11-1.41-1.48c-1.27-.5-2.06-1.08-2.06-2.16a2.05,2.05,0,0,1,1.89-2v-1.26h.77v1.21a3.38,3.38,0,0,1,1.62.44l-.31.82a3,3,0,0,0-1.57-.42c-1,0-1.32.57-1.32,1.07,0,.65.46,1,1.54,1.42,1.29.52,1.93,1.17,1.93,2.28a2.16,2.16,0,0,1-2,2.12v1.3Z"/><circle class="cls-11" cx="81.31" cy="99.5" r="8.61" transform="translate(-31.76 38.44) rotate(-22.38)"/><path class="cls-49" d="M81.31,93a19.45,19.45,0,0,1,.54,3.26A32.49,32.49,0,0,1,82,99.5l-.66-.66a27.79,27.79,0,0,1,2.88.16,18.41,18.41,0,0,1,2.89.5,18.41,18.41,0,0,1-2.89.5,27.79,27.79,0,0,1-2.88.16h-.66V99.5a29.78,29.78,0,0,1,.12-3.27A19.45,19.45,0,0,1,81.31,93Z"/><path class="cls-11" d="M395.47,44.61a10,10,0,1,1-10-10A10,10,0,0,1,395.47,44.61Z"/><path class="cls-49" d="M391.3,44.32A4.94,4.94,0,1,0,384,45.69l-2.81,4.84a.72.72,0,0,0,.26,1,.73.73,0,0,0,1-.26l2.81-4.85A4.93,4.93,0,0,0,391.3,44.32Zm-6,.54a3.49,3.49,0,1,1,4.78-1.26A3.51,3.51,0,0,1,385.27,44.86Z"/><path class="cls-11" d="M454.25,183.73a6.17,6.17,0,1,1-6.17-6.17A6.17,6.17,0,0,1,454.25,183.73Z"/><path class="cls-49" d="M450.3,184a2.86,2.86,0,0,0-.32-4,2.9,2.9,0,0,0-2.26-.7,2.86,2.86,0,0,0-1.87,4.65,3.29,3.29,0,0,1,.81,2.07v.33h-.07v1.38h3v-1.38h-.07V186A3.24,3.24,0,0,1,450.3,184Zm-4-.39a2.22,2.22,0,0,1-.47-1.83,2.32,2.32,0,0,1,2-1.85,2.28,2.28,0,0,1,2.56,2.26,2.2,2.2,0,0,1-.51,1.43,3.84,3.84,0,0,0-.93,2.44v.12h-.31c.22-.71.6-2.11.35-2.55a.31.31,0,0,0-.2-.17.44.44,0,0,0-.31,0,.53.53,0,0,0-.39-.21h0a.44.44,0,0,0-.37.22l-.05,0a.4.4,0,0,0-.41.05c-.3.25,0,1.63.32,2.64h-.29V186A3.87,3.87,0,0,0,446.31,183.56Zm1.55,2.57a6.94,6.94,0,0,1-.44-2.43.08.08,0,0,1,.1,0l.05,0a.42.42,0,0,0,.07.4.23.23,0,0,0,.26,0A.22.22,0,0,0,448,184a.52.52,0,0,0-.12-.29.25.25,0,0,1,0-.07.12.12,0,0,1,.09-.06.19.19,0,0,1,.17.1,1.13,1.13,0,0,0-.14.22.26.26,0,0,0,.41.29.47.47,0,0,0,.08-.42.16.16,0,0,1,.1,0l0,0a5.63,5.63,0,0,1-.4,2.43Z"/><rect class="cls-46" x="163.07" y="193.78" width="55.28" height="38.28" rx="2.77"/><rect class="cls-50" x="159.95" y="193.78" width="55.28" height="38.28" rx="2.77"/><path class="cls-51" d="M162.66,229.58,187.2,204a.62.62,0,0,1,.87,0l23.85,25Z"/><path class="cls-52" d="M162.66,229.58l23.57-21.68a2,2,0,0,1,2.72,0l23.58,21.68a1.43,1.43,0,0,1-1,2.49H163.63A1.43,1.43,0,0,1,162.66,229.58Z"/><path class="cls-53" d="M185.42,216l-23.3-20.35a1.09,1.09,0,0,1,.72-1.9h49.51a1.08,1.08,0,0,1,.71,1.9L189.77,216A3.3,3.3,0,0,1,185.42,216Z"/><path class="cls-51" d="M186.13,218.59l-24-22.91h50.94l-24,22.91A2.22,2.22,0,0,1,186.13,218.59Z"/><path class="cls-54" d="M447.81,237.15H78.3a2.56,2.56,0,0,1-2.56-2.56h0A2.56,2.56,0,0,1,78.3,232H447.81a2.55,2.55,0,0,1,2.56,2.55h0A2.55,2.55,0,0,1,447.81,237.15Z"/><polygon class="cls-55" points="441.85 142.45 443.75 144.58 450.83 145.68 441.33 148.25 438.74 143.75 441.85 142.45"/><path class="cls-56" d="M394.57,106.61c-2.9,8.25,0,10.54,5.05,12.22,2,.66,18.64-.9,23.62.67s15.5,26.07,15.5,26.07l4.57-2.74s-10.4-28.66-11.91-29.7c-2.35-1.63-16.08-3-20-4S404.3,104,404.3,104Z"/><path class="cls-57" d="M395.93,87.73s1.12,11.63,2.47,14,17.15,7.74,18.53,7.84a9.63,9.63,0,0,0,3.64-1s3.49,1.26,4.07.95-3.12-2.94-4.54-3.22-3.58.84-3.58.84-12.21-5.09-13.58-7.27-2.39-13-2.39-13Z"/><polygon class="cls-58" points="398.93 76.35 397.43 80.33 401.22 81.16 401.88 76.67 398.93 76.35"/><path class="cls-58" d="M397.4,73.41a3,3,0,0,1,.09.41,6.72,6.72,0,0,0,1,2.88,3.76,3.76,0,0,0,2.72,1.66,3.69,3.69,0,0,0,2.71-1,6.37,6.37,0,0,0,1.57-2.51c.53-1.46,1.14-3.29.29-4.59-.41-.63-2.56-1.68-4.08-2.37a2.35,2.35,0,0,0-2.71.59l-1.49,1.67a2.31,2.31,0,0,0-.47,2.29Z"/><path class="cls-59" d="M399.55,69.31a1,1,0,0,0-1.13.62,1.66,1.66,0,0,0,.08,1.36,4.86,4.86,0,0,0,.82,1.14c-.59.85-1.58,1.92-1.46,2.94-.8-.51-.75-1.15-1.37-1.85-1.16-1.32-3-6.63,1.18-8.16,4.45-5.81,10.8,3.06,11.81,2.6a3.8,3.8,0,0,1-3.55,3.36,4.89,4.89,0,0,1-3.08-.54,7.54,7.54,0,0,0-1.4-.75c-.37-.12-.75,1.47-1.06,1.33S399.93,69.4,399.55,69.31Z"/><polygon class="cls-55" points="440.35 143.79 442.25 145.91 449.33 147.01 439.83 149.58 437.23 145.09 440.35 143.79"/><path class="cls-60" d="M395,105.23c-2.9,8.26-1.87,13.25,3.17,14.93,2,.67,25.49.85,25.49.85l13.62,25.9,4.58-2.74s-11.29-28.9-12.6-30-14.95-3-18.9-4-5.63-7.54-5.63-7.54Z"/><path class="cls-61" d="M401.64,80.65c-3.78-3.21-8.35-1-9.17,9a220.47,220.47,0,0,0-.2,22.95c6.49,1.52,13.25-.68,18.93-3.25,0,0-5.28-6.64-6.42-13.15C403.85,91,404.69,83.25,401.64,80.65Z"/><path class="cls-58" d="M398.69,88.54a2.35,2.35,0,0,0-1.91,2.56c.4,3.48,1.26,10.12,2.24,11.88,1.34,2.43,14,7.21,15.4,7.31a7.49,7.49,0,0,0,2.87-.67,2.35,2.35,0,0,1,1.59-.05c1.07.35,2.85.88,3.24.67.57-.31-3.12-2.95-4.54-3.22a5.38,5.38,0,0,0-2.66.43,2.32,2.32,0,0,1-1.91-.11c-2.4-1.25-8.36-4.48-9.45-6.22-.95-1.52-1.73-7.22-2.12-10.55a2.34,2.34,0,0,0-2.75-2Z"/><path class="cls-11" d="M397.87,81.13c-4.72,1.28-2.54,11.16-2.54,11.16,2.19.77,4.89.47,7.85-.39C402.29,89.54,402.12,80,397.87,81.13Z"/><path class="cls-62" d="M429.8,111.21H411.37a1.06,1.06,0,0,1,0-2.12h17.52l2.48-16.3a1.06,1.06,0,0,1,2.1.32l-2.62,17.2A1.07,1.07,0,0,1,429.8,111.21Z"/><rect class="cls-46" x="357.3" y="119.03" width="72.48" height="113.04" rx="7.96"/><rect class="cls-63" x="353.44" y="119.03" width="72.48" height="113.04" rx="7.96"/><rect class="cls-11" x="353.44" y="126.65" width="72.48" height="97.79"/><g class="cls-64"><path class="cls-65" d="M419.28,134h-59.2a1.41,1.41,0,0,1-1.41-1.4h0a1.41,1.41,0,0,1,1.41-1.41h59.2a1.41,1.41,0,0,1,1.41,1.41h0A1.41,1.41,0,0,1,419.28,134Z"/><path class="cls-65" d="M419.28,140.1h-59.2a1.41,1.41,0,0,1-1.41-1.41h0a1.41,1.41,0,0,1,1.41-1.4h59.2a1.41,1.41,0,0,1,1.41,1.4h0A1.41,1.41,0,0,1,419.28,140.1Z"/><path class="cls-65" d="M419.28,146.24h-59.2a1.41,1.41,0,0,1-1.41-1.4h0a1.4,1.4,0,0,1,1.41-1.4h59.2a1.4,1.4,0,0,1,1.41,1.4h0A1.41,1.41,0,0,1,419.28,146.24Z"/><path class="cls-65" d="M419.28,152.39h-59.2a1.41,1.41,0,0,1-1.41-1.41h0a1.41,1.41,0,0,1,1.41-1.4h59.2a1.41,1.41,0,0,1,1.41,1.4h0A1.41,1.41,0,0,1,419.28,152.39Z"/><rect class="cls-66" x="358.67" y="155.52" width="62.02" height="47.25" rx="4.57"/></g><path class="cls-67" d="M417.3,219.18H362.06a3.39,3.39,0,0,1-3.39-3.39v-.56a3.39,3.39,0,0,1,3.39-3.39H417.3a3.39,3.39,0,0,1,3.39,3.39v.56A3.39,3.39,0,0,1,417.3,219.18Zm2-12.83H360a1.37,1.37,0,0,0-1.37,1.37h0a1.37,1.37,0,0,0,1.37,1.37h59.27a1.37,1.37,0,0,0,1.38-1.37h0A1.37,1.37,0,0,0,419.31,206.35Z"/><path class="cls-68" d="M145.25,147.15a39.56,39.56,0,0,0,9.35-18.35l3-.61s-1.18,14.54-6,19.58S145.25,147.15,145.25,147.15Z"/><path class="cls-58" d="M155.32,128.61a2.79,2.79,0,0,1-1-2.85c.47-1.8,1.64-2,1.45-1a2.4,2.4,0,0,0,.44,1.8,2.71,2.71,0,0,1,.2,1.84Z"/><path class="cls-58" d="M146,141.12c.26.46-.53,4.07-.53,4.07l3.23-.87-.73-3.6Z"/><path class="cls-58" d="M146.33,141.4a7.78,7.78,0,0,1-3.3-.86l-2.54-2-.25-4.53,5.2-3.58S152.94,140.38,146.33,141.4Z"/><path class="cls-55" d="M141.39,135.91a9.37,9.37,0,0,0,5-9.54,8.19,8.19,0,0,1-3.25,2,12.5,12.5,0,0,0-3.41,1.8,3.63,3.63,0,0,0-1.36,3.42c-1.4.43-1.85,2.26-1.48,3.66a5.44,5.44,0,0,0,2.84,3.48c1.38.69,3.35.31,4.77-.29-1.36-.4-4-2-1.83-2.54A11.8,11.8,0,0,0,141.39,135.91Z"/><path class="cls-11" d="M143.41,145.24a26.83,26.83,0,0,1,1.14-2.64l5.73-.43.32,1.61Z"/><polygon class="cls-55" points="150.91 226.64 151.01 229.17 156.89 232.04 147.57 231.93 148.75 226.07 150.91 226.64"/><polygon class="cls-55" points="132.18 226.64 132.08 229.17 126.2 232.03 135.52 231.93 134.34 226.07 132.18 226.64"/><path class="cls-69" d="M143.39,174.92c0-.06,0-.11,0-.16l-1.94.08-1.79-.07s0,.09,0,.14l-8,.33v54.09l3.65-.28s3.85-24.69,6.24-40.87c2.4,16.18,6.25,40.87,6.25,40.87l3.65.29v-54.1Z"/><path class="cls-58" d="M175.37,136.86s.53-2,1.58-2.11l-.31,1.18a7.25,7.25,0,0,0,2-1.77c.46-.81,1.78,2.25.48,3.43a3.86,3.86,0,0,1-2.33,1.19Z"/><path class="cls-70" d="M129.49,182.49s7-33.56,14.13-37.84c2.78-1.67,10.85-.12,18.16-1.69,9.64-2.08,13.72-6.71,13.72-6.71l3.05,1.92s-5.9,8.16-24.53,13.38c-3.9,10.57-.51,30.94-.51,30.94S136.71,181.11,129.49,182.49Z"/><path class="cls-71" d="M334.56,180c-1.23.28-8.56-1.79-11.68-4.37,0,0,4.06-15.07,3.94-18.79s1.89-11.54,4.57-5.69S334.56,180,334.56,180Z"/><polygon class="cls-55" points="334.34 226.11 334.5 228.64 328.93 232.07 338.47 232.07 337.07 225.38 334.34 226.11"/><path class="cls-72" d="M340.42,173.38c.09,4.54-2.73,54.82-2.73,54.82l-3.6.65-5.16-54.94Z"/><polygon class="cls-55" points="329.49 226.11 329.65 228.64 324.07 232.07 333.55 231.74 332.21 225.38 329.49 226.11"/><path class="cls-73" d="M335.57,173.38c.09,4.54-2.74,54.82-2.74,54.82l-3.6.65-3.51-55.35Z"/><path class="cls-11" d="M337.26,176.34c-7.78.23-11.57-1.89-12-2.62s.17-1.26.43-2.26c1-4,3.61-14.21,3.52-17.19-.11-3.72,1.89-11.53,4.57-5.68S337.26,176.34,337.26,176.34Z"/><polygon class="cls-74" points="296.35 158.48 316.02 174.92 320.96 165.9 303.88 153.18 296.35 158.48"/><polygon class="cls-11" points="297.81 158.68 315.98 173.38 320.24 166.01 303.96 153.87 297.81 158.68"/><polygon class="cls-15" points="297.25 157.05 298.05 157.62 302.9 154.21 302.26 153.75 297.25 157.05"/><path class="cls-75" d="M309.59,147.85l-.34,3.42s13,13.84,24.92.66l-.87-7.78S325.74,159.91,309.59,147.85Z"/><path class="cls-58" d="M309.59,147.85c-1.64-.55-2.3-2.27-3.21-.41-1.67,3.43,2.87,3.83,2.87,3.83Z"/><path class="cls-55" d="M308.38,141l-2.65,10,.06,1.36.84-1.05,2.58-10C309.32,140.56,308.68,140.3,308.38,141Z"/><path class="cls-58" d="M308.16,148.41s-2,.69-2.14.29,1.52-1.15,1.89-1.75,1.11,1,1.11,1Z"/><polygon class="cls-58" points="329.66 138.79 331.59 143.29 333.33 141.76 333.58 136.82 329.66 138.79"/><path class="cls-58" d="M326.67,131.68c-.83,4.93-1.42,8.23,2.28,8.44,3.36.2,6.24-5,6.24-5C337.77,129.32,328.11,123.14,326.67,131.68Z"/><path class="cls-55" d="M323.28,126.77c3.39,4.91,8.18,5.65,9.67,5.14.7-.24.72.51.44,2,1.88-.86,1.21,1.52-.16,2.39a11.11,11.11,0,0,0-.6,2.13s4.65-3,4.66-6.22c0-3.9-2.87-3.46-2.87-3.46s-1.71-5.26-6.42-3.61Z"/><polygon class="cls-11" points="329.84 142 334.45 139.42 335.76 141.77 329.04 145.52 329.84 142"/><path class="cls-76" d="M308,165.9l.54,4.14c-.12.11,14.38,5.59,20.54-10.64a171.65,171.65,0,0,1-3.9,18.84A29.52,29.52,0,0,0,341.7,180s1.29-28.76-5.07-37.74c-3.37-4.76-8.09,3-9.26,7.81C325.88,156.18,322.36,169.76,308,165.9Z"/><path class="cls-58" d="M308,165.9s-2.49-.68-3.44-.06.38,2.64,1.47,3.78a2.22,2.22,0,0,0,2.51.42Z"/><path class="cls-11" d="M477.69,214c1-.51,34-11.8,34-11.8l3,4.46Z"/><polygon class="cls-10" points="514.7 206.66 514.4 221.76 477.69 214 514.7 206.66"/><polygon class="cls-10" points="514.4 221.76 477.69 214 518.55 211.71 514.4 221.76"/><polygon class="cls-11" points="518.55 211.71 477.69 214 523.29 219.62 518.55 211.71"/><path class="cls-11" d="M57.9,10.73c.79.37,10.28,7.54,10.28,7.54l29.53-4.43Z"/><polygon class="cls-10" points="67.39 30.83 68.18 18.27 97.71 13.84 67.39 30.83"/><polygon class="cls-77" points="67.39 30.83 75.91 23.35 97.71 13.84 67.39 30.83"/><polygon class="cls-11" points="75.91 23.35 87.86 31.9 97.71 13.84 75.91 23.35"/><circle class="cls-78" cx="477.69" cy="93.3" r="1.97"/><circle class="cls-78" cx="445.78" cy="224.44" r="1.97"/><circle class="cls-78" cx="468.08" cy="27.27" r="1.97"/><circle class="cls-78" cx="518.55" cy="135.03" r="1.97"/><circle class="cls-78" cx="187.29" cy="31.9" r="1.97"/><circle class="cls-78" cx="37.55" cy="31.9" r="1.97"/><circle class="cls-78" cx="258.45" cy="57.15" r="1.97"/><circle class="cls-78" cx="347.17" cy="22.34" r="1.97"/><circle class="cls-78" cx="91.66" cy="60.41" r="1.97"/><circle class="cls-78" cx="23.65" cy="110.93" r="1.97"/><circle class="cls-78" cx="494.22" cy="191.61" r="1.97"/><circle class="cls-78" cx="35.58" cy="196.51" r="1.97"/><circle class="cls-78" cx="105.24" cy="152.08" r="1.97"/><path class="cls-11" d="M521.82,80.77h-.91v-.91a.39.39,0,0,0-.39-.39.4.4,0,0,0-.4.39v.91h-.9a.38.38,0,0,0-.39.39.39.39,0,0,0,.39.4h.9v.9a.39.39,0,0,0,.4.39.38.38,0,0,0,.39-.39v-.9h.91a.4.4,0,0,0,.39-.4A.39.39,0,0,0,521.82,80.77Z"/><path class="cls-11" d="M507.22,150.88h-.91V150a.39.39,0,0,0-.39-.4.4.4,0,0,0-.4.4v.9h-.9a.4.4,0,0,0,0,.79h.9v.9a.4.4,0,0,0,.4.4.39.39,0,0,0,.39-.4v-.9h.91a.4.4,0,0,0,0-.79Z"/><path class="cls-11" d="M516,189.24h-.9v-.91a.4.4,0,0,0-.79,0v.91h-.9a.39.39,0,0,0-.4.39.4.4,0,0,0,.4.4h.9v.9a.4.4,0,0,0,.79,0V190h.9a.4.4,0,0,0,.4-.4A.39.39,0,0,0,516,189.24Z"/><path class="cls-11" d="M448.59,104.44h-.9v-.9a.39.39,0,0,0-.39-.4.4.4,0,0,0-.4.4v.9H446a.38.38,0,0,0-.39.39.39.39,0,0,0,.39.4h.9v.9a.39.39,0,0,0,.4.39.38.38,0,0,0,.39-.39v-.9h.9a.4.4,0,0,0,.4-.4A.39.39,0,0,0,448.59,104.44Z"/><path class="cls-11" d="M469.37,177.17h-.9v-.9a.4.4,0,1,0-.79,0v.9h-.9a.39.39,0,0,0-.4.39.4.4,0,0,0,.4.4h.9v.9a.4.4,0,0,0,.79,0V178h.9a.4.4,0,0,0,.4-.4A.39.39,0,0,0,469.37,177.17Z"/><path class="cls-11" d="M447.77,206h-.9v-.9a.4.4,0,1,0-.79,0v.9h-.9a.4.4,0,1,0,0,.79h.9v.9a.4.4,0,1,0,.79,0v-.9h.9a.4.4,0,1,0,0-.79Z"/><path class="cls-11" d="M446.08,16.64h-.9v-.91a.4.4,0,0,0-.79,0v.91h-.9a.39.39,0,0,0-.4.39.4.4,0,0,0,.4.4h.9v.9a.4.4,0,0,0,.79,0v-.9h.9a.4.4,0,0,0,.4-.4A.39.39,0,0,0,446.08,16.64Z"/><path class="cls-11" d="M382.34,7h-.91v-.9a.39.39,0,0,0-.39-.4.4.4,0,0,0-.4.4V7h-.9a.4.4,0,0,0,0,.79h.9v.9a.4.4,0,0,0,.4.4.39.39,0,0,0,.39-.4v-.9h.91a.4.4,0,0,0,0-.79Z"/><path class="cls-11" d="M339.77,52.55h-.9v-.9a.4.4,0,0,0-.4-.4.39.39,0,0,0-.39.4v.9h-.91a.4.4,0,0,0,0,.79h.91v.9a.39.39,0,0,0,.39.4.4.4,0,0,0,.4-.4v-.9h.9a.4.4,0,0,0,0-.79Z"/><path class="cls-11" d="M278.38,10.34h-.9V9.43a.4.4,0,0,0-.79,0v.91h-.9a.39.39,0,0,0-.4.39.4.4,0,0,0,.4.4h.9V12a.4.4,0,0,0,.79,0v-.9h.9a.4.4,0,0,0,.4-.4A.39.39,0,0,0,278.38,10.34Z"/><path class="cls-11" d="M176.67,54.24h-.9v-.9a.4.4,0,0,0-.4-.4.39.39,0,0,0-.39.4v.9h-.9a.4.4,0,0,0-.4.4.39.39,0,0,0,.4.39h.9v.9a.39.39,0,0,0,.39.4.4.4,0,0,0,.4-.4V55h.9a.38.38,0,0,0,.39-.39A.39.39,0,0,0,176.67,54.24Z"/><path class="cls-11" d="M207.41,1.3h-.9V.39a.4.4,0,0,0-.79,0V1.3h-.9a.39.39,0,0,0-.4.39.4.4,0,0,0,.4.4h.9V3a.4.4,0,0,0,.79,0v-.9h.9a.4.4,0,0,0,.4-.4A.39.39,0,0,0,207.41,1.3Z"/><path class="cls-11" d="M21.28,55h-.9v-.9a.39.39,0,0,0-.39-.4.4.4,0,0,0-.4.4V55h-.9a.4.4,0,0,0,0,.79h.9v.9a.4.4,0,0,0,.4.4.39.39,0,0,0,.39-.4v-.9h.9a.4.4,0,1,0,0-.79Z"/><path class="cls-11" d="M3,142.89h-.9V142a.39.39,0,0,0-.4-.39.38.38,0,0,0-.39.39v.9H.39a.4.4,0,0,0-.39.4.39.39,0,0,0,.39.39H1.3v.91a.39.39,0,0,0,.39.39.4.4,0,0,0,.4-.39v-.91H3a.38.38,0,0,0,.39-.39A.39.39,0,0,0,3,142.89Z"/><path class="cls-11" d="M40.83,178.87h-.91V178a.38.38,0,0,0-.39-.39.39.39,0,0,0-.4.39v.9h-.9a.39.39,0,0,0-.39.4.38.38,0,0,0,.39.39h.9v.91a.4.4,0,0,0,.4.39.39.39,0,0,0,.39-.39v-.91h.91a.39.39,0,0,0,.39-.39A.4.4,0,0,0,40.83,178.87Z"/><path class="cls-11" d="M63.62,65.29h-.9v-.9a.38.38,0,0,0-.39-.39.39.39,0,0,0-.4.39v.9H61a.39.39,0,0,0-.39.4.38.38,0,0,0,.39.39h.9V67a.4.4,0,0,0,.4.4.39.39,0,0,0,.39-.4v-.9h.9a.39.39,0,0,0,.4-.39A.4.4,0,0,0,63.62,65.29Z"/><path class="cls-11" d="M53.32,120.22h-.9v-.91a.39.39,0,0,0-.39-.39.4.4,0,0,0-.4.39v.91h-.9a.38.38,0,0,0-.39.39.39.39,0,0,0,.39.4h.9v.9a.39.39,0,0,0,.4.39.38.38,0,0,0,.39-.39V121h.9a.4.4,0,0,0,.4-.4A.39.39,0,0,0,53.32,120.22Z"/><path class="cls-11" d="M119.07,165.91h-.91V165a.38.38,0,0,0-.39-.39.39.39,0,0,0-.4.39v.9h-.9a.39.39,0,0,0-.39.4.38.38,0,0,0,.39.39h.9v.91a.4.4,0,0,0,.4.39.39.39,0,0,0,.39-.39v-.91h.91a.39.39,0,0,0,.39-.39A.4.4,0,0,0,119.07,165.91Z"/><path class="cls-11" d="M6.37,219.32h-.9v-.9a.4.4,0,0,0-.79,0v.9h-.9a.4.4,0,0,0-.4.4.39.39,0,0,0,.4.39h.9v.9a.4.4,0,1,0,.79,0v-.9h.9a.39.39,0,0,0,.4-.39A.4.4,0,0,0,6.37,219.32Z"/><path class="cls-11" d="M130.79,18.33h-.9v-.9a.4.4,0,1,0-.79,0v.9h-.9a.39.39,0,0,0-.4.39.4.4,0,0,0,.4.4h.9V20a.4.4,0,0,0,.79,0v-.9h.9a.4.4,0,0,0,.4-.4A.39.39,0,0,0,130.79,18.33Z"/><path class="cls-11" d="M120.76,80.43h-.9v-.9a.4.4,0,0,0-.4-.4.39.39,0,0,0-.39.4v.9h-.91a.4.4,0,0,0,0,.79h.91v.9a.39.39,0,0,0,.39.4.4.4,0,0,0,.4-.4v-.9h.9a.4.4,0,0,0,0-.79Z"/><path class="cls-11" d="M477,66.06h-.91v-.91a.39.39,0,0,0-.39-.39.4.4,0,0,0-.4.39v.91h-.9a.38.38,0,0,0-.39.39.39.39,0,0,0,.39.4h.9v.9a.39.39,0,0,0,.4.39.38.38,0,0,0,.39-.39v-.9H477a.4.4,0,0,0,.39-.4A.39.39,0,0,0,477,66.06Z"/></g></g></g></svg>